<svg xmlns="http://www.w3.org/2000/svg" width="44" height="44" viewBox="0 0 44 44"><defs><clipPath id="hxida"><path fill="#fff" d="M44 22c0 12.15-9.85 22-22 22S0 34.15 0 22 9.85 0 22 0s22 9.85 22 22z"/></clipPath></defs><g><g transform="rotate(180 22 22)"><g><path fill="#fff" d="M44 22c0 12.15-9.85 22-22 22S0 34.15 0 22 9.85 0 22 0s22 9.85 22 22z"/><path fill="none" stroke="#dee5ea" stroke-miterlimit="50" stroke-width="2" d="M44 22c0 12.15-9.85 22-22 22S0 34.15 0 22 9.85 0 22 0s22 9.85 22 22z" clip-path="url(&quot;#hxida&quot;)"/></g><g transform="rotate(45 20 21.5)"><g><path fill="#225a7c" d="M16 18.07a1 1 0 0 1 1-1h8a1 1 0 1 1 0 2h-8a1 1 0 0 1-1-1z"/></g><g transform="rotate(90 20 18.5)"><path fill="#225a7c" d="M20 22.07a1 1 0 0 1 1-1h8a1 1 0 1 1 0 2h-8a1 1 0 0 1-1-1z"/></g></g></g></g></svg>