<svg xmlns="http://www.w3.org/2000/svg" width="34" height="34" viewBox="0 0 34 34"><g><g><path fill="#bed8e9" d="M34 17c0 9.389-7.611 17-17 17S0 26.389 0 17 7.611 0 17 0s17 7.611 17 17z"/></g><g><path fill="#f0f6fa" d="M21 18.93L17 25l-4.006-6.078c-1.494-2.093-1.277-5.547.47-7.383.945-.992 2.2-1.539 3.537-1.539 1.335 0 2.59.547 3.535 1.539 1.748 1.836 1.965 5.29.465 7.391zm-2.128-3.725c0-1.057-.82-1.918-1.825-1.918-1.007 0-1.826.86-1.826 1.918 0 1.057.82 1.917 1.826 1.917 1.006 0 1.825-.86 1.825-1.917z"/></g></g></svg>