<svg xmlns="http://www.w3.org/2000/svg" viewBox="0 0 19 19">
  <defs/>
  <path fill="#04b2d9" d="M9.942 13.356v1.484H7.418v-1.484zm-4.376.742a.928.928 0 11-1.856 0 .928.928 0 011.856 0zm9.345-5.455v1.484H7.418V8.643zm-9.345.742a.928.928 0 11-1.856 0 .928.928 0 011.856 0zm9.345-5.192v1.485H7.418V4.193zm-9.345.743a.928.928 0 11-1.856-.001.928.928 0 011.856 0zM1.484 16.77c0 .408.334.742.743.742h8.568v1.484H2.227A2.228 2.228 0 010 16.77V2.227C0 .998.998 0 2.227 0H16.77c1.228 0 2.226.998 2.226 2.227v8.383h-1.484V2.227a.744.744 0 00-.742-.743H2.227a.744.744 0 00-.743.743zM17.95 19l-1.477-1.477a3.31 3.31 0 01-1.707.471 3.345 3.345 0 01-3.34-3.34c0-1.84 1.5-3.34 3.34-3.34 1.84 0 3.34 1.5 3.34 3.34 0 .683-.204 1.314-.557 1.845L19 17.949zm-3.184-2.49a1.856 1.856 0 10-.002-3.712 1.856 1.856 0 00.002 3.712z"/>
</svg>
