<svg xmlns="http://www.w3.org/2000/svg" width="19" height="16" viewBox="0 0 19 16"><g><g><g><g><path fill="#1f4e6a" d="M11.445 14.645h-1.25V3.19h5.268l-2.232 3.54a.384.384 0 0 0 .65.41l1.936-3.07 1.935 3.07a.385.385 0 0 0 .65-.41l-2.23-3.54h.027a.596.596 0 0 0 0-1.191h-4.382a1.95 1.95 0 0 0-1.04-.762 1.356 1.356 0 0 0-2.702 0 1.95 1.95 0 0 0-1.04.762H2.653a.596.596 0 1 0 0 1.19h.028L.449 6.73a.384.384 0 0 0 .65.41l1.936-3.071 1.935 3.07a.384.384 0 0 0 .65-.41L3.39 3.19h5.268v11.456h-1.25c-.748 0-1.354.607-1.354 1.355h6.746c0-.748-.606-1.355-1.354-1.355z"/></g><g><path fill="#1f4e6a" d="M5.86 7.73H.206A.205.205 0 0 0 0 7.935a3.036 3.036 0 0 0 3.033 3.033 3.036 3.036 0 0 0 3.033-3.033.205.205 0 0 0-.205-.205z"/></g><g><path fill="#1f4e6a" d="M18.64 7.73h-5.655a.205.205 0 0 0-.205.205 3.036 3.036 0 0 0 3.033 3.033 3.036 3.036 0 0 0 3.033-3.033.205.205 0 0 0-.205-.205z"/></g></g></g></g></svg>