<svg width="48" height="48" viewBox="0 0 48 48" fill="none" xmlns="http://www.w3.org/2000/svg">
<path d="M24 48C37.2548 48 48 37.2548 48 24C48 10.7452 37.2548 0 24 0C10.7452 0 0 10.7452 0 24C0 37.2548 10.7452 48 24 48Z" fill="#F0F6FA"/>
<path fill-rule="evenodd" clip-rule="evenodd" d="M22.031 33.12C23.2338 33.5147 24.7667 33.5147 25.9695 33.12C28.0494 32.4374 34.3383 29.4611 36.2953 28.5274C36.8747 28.2518 37.545 28.2418 38.1326 28.4999C38.8667 28.8225 39.3602 29.4206 39.3602 30.1042V31.0154C39.3602 37.3736 32.4778 42.5354 24.0002 42.5354C15.5227 42.5354 8.64023 37.3736 8.64023 31.0154V30.1042C8.64023 29.4779 9.05456 28.9235 9.68826 28.5868C10.3227 28.2556 11.0762 28.2415 11.7225 28.5487C13.7094 29.4836 19.959 32.4401 22.031 33.12Z" fill="#BED8E9"/>
<path d="M24.0001 31.7706C25.1518 31.7706 26.0854 30.8369 26.0854 29.6852C26.0854 28.5335 25.1518 27.5999 24.0001 27.5999C22.8484 27.5999 21.9148 28.5335 21.9148 29.6852C21.9148 30.8369 22.8484 31.7706 24.0001 31.7706Z" fill="#174E83"/>
<path fill-rule="evenodd" clip-rule="evenodd" d="M25.9204 7.67995C25.9204 6.62045 25.0603 5.75999 24.0004 5.75999C22.9406 5.75999 22.0804 6.62045 22.0804 7.67995V22.08C22.0804 23.1395 22.9406 24 24.0004 24C25.0603 24 25.9204 23.1395 25.9204 22.08V7.67995Z" fill="#BED8E9"/>
<path fill-rule="evenodd" clip-rule="evenodd" d="M27.119 12.7201C27.119 10.9981 25.7213 9.60002 23.999 9.60002C22.2768 9.60002 20.8791 10.9981 20.8791 12.7201V20.8799C20.8791 22.602 22.2768 24 23.999 24C25.7213 24 27.119 22.602 27.119 20.8799V12.7201Z" fill="#BED8E9"/>
<path fill-rule="evenodd" clip-rule="evenodd" d="M24 0.960007V13.2H8.63999L6.47999 13.92L5.75999 15.36V24.48C5.75999 24.48 7.19999 32.16 5.99999 33.36C4.71743 34.6426 2.27183 34.752 1.43999 28.8C0.608151 22.848 1.19999 12.96 1.19999 12.96V4.80001L1.91999 2.40001L3.83999 0.960007H24Z" fill="#BED8E9"/>
<path fill-rule="evenodd" clip-rule="evenodd" d="M23.9985 0.960007V13.2H39.3585L41.5185 13.92L42.2385 15.36V24.48C42.2385 24.48 40.7985 32.16 41.9985 33.36C43.2811 34.6426 45.7267 34.752 46.5585 28.8C47.3904 22.848 46.7985 12.96 46.7985 12.96V4.80001L46.0785 2.40001L44.1585 0.960007H23.9985Z" fill="#BED8E9"/>
<path fill-rule="evenodd" clip-rule="evenodd" d="M43.2619 0.00048L43.3238 0.00144L43.3853 0.00336L43.4467 0.00624L43.5082 0.0096L43.5691 0.01392L43.6301 0.0192L43.6905 0.02496L43.751 0.0312L43.811 0.0384L43.871 0.04656L43.9305 0.0552L43.9901 0.0648L44.0491 0.07488L44.1082 0.08592L44.1667 0.09744L44.2253 0.10992L44.2834 0.12288L44.3414 0.1368L44.399 0.1512L44.4562 0.16656L44.5133 0.1824L44.5704 0.19872L44.6266 0.216L44.6827 0.23376L44.7389 0.25248L44.7946 0.27168L44.8498 0.29136L44.9045 0.312L44.9592 0.33312L45.0134 0.3552L45.0677 0.37728L45.1214 0.40032L45.1747 0.42432L45.2275 0.4488L45.2803 0.47376L45.3326 0.4992L45.3845 0.5256L45.4358 0.55248L45.4872 0.57984L45.5381 0.60768L45.5885 0.63648L45.6384 0.66576L45.6883 0.69552L45.7373 0.72576L45.7862 0.75648L45.8347 0.78816L45.8827 0.82032L45.9307 0.85296L45.9778 0.88608L46.0248 0.91968L46.0714 0.95424L46.117 0.9888L46.1626 1.02432L46.2077 1.06032L46.2523 1.0968L46.297 1.13376L46.3407 1.1712L46.3838 1.20912L46.4266 1.24752L46.4693 1.2864L46.511 1.32624L46.5523 1.36608L46.5936 1.4064L46.6339 1.44768L46.6738 1.48896L46.7136 1.53072L46.7525 1.57344L46.7909 1.61616L46.8288 1.65936L46.8662 1.70304L46.9032 1.74768L46.9397 1.79232L46.9757 1.83744L47.0112 1.88304L47.0458 1.92864L47.0803 1.9752L47.1139 2.02224L47.147 2.06928L47.1797 2.11728L47.2118 2.16528L47.2435 2.21376L47.2742 2.26272L47.3045 2.31168L47.3342 2.3616L47.3635 2.41152L47.3923 2.46192L47.4202 2.5128L47.4475 2.56416L47.4744 2.61552L47.5008 2.66736L47.5262 2.71968L47.5512 2.77248L47.5757 2.82528L47.5997 2.87856L47.6227 2.93232L47.6448 2.98656L47.6669 3.0408L47.688 3.09552L47.7086 3.15024L47.7283 3.20544L47.7475 3.26112L47.7662 3.31728L47.784 3.37344L47.8013 3.4296L47.8176 3.48672L47.8334 3.54384L47.8488 3.60096L47.8632 3.65856L47.8771 3.71664L47.8901 3.77472L47.9026 3.83328L47.9141 3.89184L47.9251 3.95088L47.9352 4.00992L47.9448 4.06944L47.9534 4.12896L47.9616 4.18896L47.9688 4.24896L47.975 4.30944L47.9808 4.36992L47.9861 4.43088L47.9904 4.49184L47.9938 4.55328L47.9966 4.61472L47.9986 4.67616L47.9995 4.73808L48 4.8V24L47.9995 24.155L47.9981 24.3101L47.9957 24.4646L47.9923 24.6192L47.9875 24.7733L47.9822 24.9274L47.976 25.081L47.9688 25.2341L47.9607 25.3872L47.951 25.5403L47.941 25.693L47.9299 25.8456L47.9179 25.9978L47.905 26.1494L47.891 26.3011L47.8762 26.4523L47.8603 26.6035L47.8435 26.7542L47.8258 26.905L47.807 27.0547L47.7874 27.205L47.7672 27.3547L47.7456 27.504L47.723 27.6528L47.7 27.8016L47.676 27.9499L47.651 28.0982L47.6246 28.2461L47.5983 28.3934L47.5704 28.5408L47.5416 28.6877L47.5118 28.8341L47.4816 28.9805L47.4504 29.1264L47.4183 29.2718L47.3851 29.4173L47.351 29.5622L47.316 29.7067L47.2805 29.8512L47.244 29.9952L47.2066 30.1387L47.1682 30.2818L47.1288 30.4248L47.089 30.5674L47.0482 30.7094L47.0064 30.851L46.9637 30.9926L46.9205 31.1338L46.8758 31.2744L46.8307 31.4146L46.7851 31.5547L46.7381 31.6939L46.6905 31.8331L46.6421 31.9718L46.5926 32.1106L46.5427 32.2483L46.4918 32.3861L46.44 32.5234L46.3877 32.6602L46.3344 32.7965L46.2802 32.9323L46.225 33.0682L46.1693 33.2035L46.1126 33.3379L46.0555 33.4723L45.9974 33.6062L45.9384 33.7402L45.8784 33.8731L45.8179 34.0056L45.757 34.1381L45.6946 34.2696L45.6317 34.4011L45.5683 34.5322L45.504 34.6627L45.4387 34.7923L45.3729 34.9219L45.3062 35.051L45.2386 35.1802L45.1704 35.3083L45.1017 35.436L45.0317 35.5632L44.9616 35.6899L44.8901 35.8162L44.8186 35.9424L44.7456 36.0677L44.6722 36.1925L44.5983 36.3168L44.5234 36.4411L44.448 36.5645L44.3717 36.6874L44.2944 36.8098L44.2166 36.9317L44.1384 37.0531L44.0592 37.1741L43.9795 37.2946L43.8989 37.4146L43.8178 37.5341L43.7357 37.6531L43.6531 37.7717L43.5696 37.8893L43.4856 38.0069L43.4011 38.1235L43.3157 38.2402L43.2293 38.3558L43.1429 38.471L43.055 38.5858L42.9672 38.7L42.8784 38.8138L42.7891 38.9266L42.6989 39.0394L42.6082 39.1512L42.5165 39.2626L42.4248 39.3734L42.3322 39.4838L42.2386 39.5933L42.1445 39.7027L42.0499 39.8112L41.9544 39.9192L41.8589 40.0267L41.7619 40.1338L41.665 40.2398L41.5671 40.3454L41.4686 40.4506L41.3698 40.5552L41.2699 40.6589L41.1696 40.7626L41.0688 40.8653L40.967 40.967L40.8653 41.0688L40.7626 41.1696L40.6589 41.2699L40.5552 41.3698L40.4505 41.4686L40.3454 41.567L40.2398 41.665L40.1338 41.7619L40.0267 41.8589L39.9192 41.9544L39.8112 42.0499L39.7027 42.1445L39.5933 42.2386L39.4838 42.3322L39.3734 42.4248L39.2626 42.5165L39.1512 42.6082L39.0393 42.6989L38.9266 42.7891L38.8138 42.8784L38.7 42.9672L38.5858 43.055L38.471 43.1429L38.3559 43.2293L38.2402 43.3157L38.1235 43.4011L38.0069 43.4856L37.8893 43.5696L37.7717 43.6531L37.6531 43.7357L37.5341 43.8178L37.4146 43.8989L37.2946 43.9795L37.1741 44.0592L37.0531 44.1384L36.9317 44.2166L36.8098 44.2944L36.6874 44.3717L36.5645 44.448L36.4411 44.5234L36.3168 44.5982L36.1925 44.6722L36.0677 44.7456L35.9424 44.8186L35.8162 44.8901L35.6899 44.9616L35.5632 45.0317L35.436 45.1018L35.3083 45.1704L35.1802 45.2386L35.051 45.3062L34.9219 45.373L34.7923 45.4387L34.6627 45.504L34.5322 45.5683L34.4011 45.6317L34.2696 45.6946L34.1381 45.757L34.0056 45.8179L33.8731 45.8784L33.7402 45.9384L33.6062 45.9974L33.4723 46.0555L33.3379 46.1126L33.2035 46.1693L33.0682 46.225L32.9323 46.2802L32.7965 46.3344L32.6602 46.3877L32.5234 46.44L32.3861 46.4918L32.2483 46.5427L32.1105 46.5926L31.9718 46.6421L31.8331 46.6906L31.6939 46.7381L31.5547 46.7851L31.4146 46.8307L31.2744 46.8758L31.1338 46.9205L30.9926 46.9637L30.851 47.0064L30.7095 47.0482L30.5674 47.089L30.4248 47.1288L30.2817 47.1682L30.1387 47.2066L29.9952 47.244L29.8512 47.2805L29.7067 47.316L29.5622 47.351L29.4173 47.3851L29.2718 47.4182L29.1264 47.4504L28.9805 47.4816L28.8341 47.5118L28.6877 47.5416L28.5408 47.5704L28.3934 47.5982L28.2461 47.6246L28.0982 47.651L27.9499 47.676L27.8016 47.7L27.6528 47.723L27.504 47.7456L27.3547 47.7672L27.205 47.7874L27.0547 47.807L26.905 47.8258L26.7542 47.8435L26.6035 47.8603L26.4523 47.8762L26.3011 47.891L26.1494 47.905L25.9978 47.9179L25.8456 47.9299L25.693 47.941L25.5403 47.951L25.3872 47.9606L25.2341 47.9688L25.081 47.976L24.9274 47.9822L24.7733 47.9875L24.6192 47.9923L24.4646 47.9957L24.3101 47.9981L24.155 47.9995L24 48L23.845 47.9995L23.6899 47.9981L23.5354 47.9957L23.3808 47.9923L23.2267 47.9875L23.0726 47.9822L22.919 47.976L22.7659 47.9688L22.6128 47.9606L22.4597 47.951L22.307 47.941L22.1544 47.9299L22.0022 47.9179L21.8506 47.905L21.6989 47.891L21.5477 47.8762L21.3965 47.8603L21.2458 47.8435L21.095 47.8258L20.9453 47.807L20.795 47.7874L20.6453 47.7672L20.496 47.7456L20.3472 47.723L20.1984 47.7L20.0501 47.676L19.9018 47.651L19.7539 47.6246L19.6066 47.5982L19.4592 47.5704L19.3123 47.5416L19.1659 47.5118L19.0195 47.4816L18.8736 47.4504L18.7282 47.4182L18.5827 47.3851L18.4378 47.351L18.2933 47.316L18.1488 47.2805L18.0048 47.244L17.8613 47.2066L17.7182 47.1682L17.5752 47.1288L17.4326 47.089L17.2906 47.0482L17.149 47.0064L17.0074 46.9637L16.8662 46.9205L16.7256 46.8758L16.5854 46.8307L16.4453 46.7851L16.3061 46.7381L16.1669 46.6906L16.0282 46.6421L15.8894 46.5926L15.7517 46.5427L15.6139 46.4918L15.4766 46.44L15.3398 46.3877L15.2035 46.3344L15.0677 46.2802L14.9318 46.225L14.7965 46.1693L14.6621 46.1126L14.5277 46.0555L14.3938 45.9974L14.2598 45.9384L14.1269 45.8784L13.9944 45.8179L13.8619 45.757L13.7304 45.6946L13.5989 45.6317L13.4678 45.5683L13.3373 45.504L13.2077 45.4387L13.0781 45.373L12.949 45.3062L12.8198 45.2386L12.6917 45.1704L12.564 45.1018L12.4368 45.0317L12.3101 44.9616L12.1838 44.8901L12.0576 44.8186L11.9323 44.7456L11.8075 44.6722L11.6832 44.5982L11.5589 44.5234L11.4355 44.448L11.3126 44.3717L11.1902 44.2944L11.0683 44.2166L10.9469 44.1384L10.8259 44.0592L10.7054 43.9795L10.5854 43.8989L10.4659 43.8178L10.3469 43.7357L10.2283 43.6531L10.1107 43.5696L9.99312 43.4856L9.87647 43.4011L9.75984 43.3157L9.64417 43.2293L9.52895 43.1429L9.41424 43.055L9.3 42.9672L9.18624 42.8784L9.07345 42.7891L8.96064 42.6989L8.8488 42.6082L8.73744 42.5165L8.62655 42.4248L8.51616 42.3322L8.40672 42.2386L8.29729 42.1445L8.1888 42.0499L8.0808 41.9544L7.97328 41.8589L7.86624 41.7619L7.76016 41.665L7.65456 41.567L7.54944 41.4686L7.4448 41.3698L7.34112 41.2699L7.23744 41.1696L7.13473 41.0688L7.03296 40.967L6.9312 40.8653L6.83041 40.7626L6.73008 40.6589L6.63023 40.5552L6.53136 40.4506L6.43296 40.3454L6.33504 40.2398L6.23808 40.1338L6.14112 40.0267L6.0456 39.9192L5.95008 39.8112L5.85552 39.7027L5.76144 39.5933L5.66785 39.4838L5.5752 39.3734L5.48353 39.2626L5.39184 39.1512L5.30112 39.0394L5.21087 38.9266L5.12161 38.8138L5.03279 38.7L4.94496 38.5858L4.85711 38.471L4.77072 38.3558L4.68432 38.2402L4.59888 38.1235L4.5144 38.0069L4.43041 37.8893L4.34688 37.7717L4.26432 37.6531L4.18225 37.5341L4.10112 37.4146L4.02048 37.2946L3.9408 37.1741L3.86161 37.0531L3.78335 36.9317L3.7056 36.8098L3.62832 36.6874L3.552 36.5645L3.47665 36.4411L3.40176 36.3168L3.32785 36.1925L3.2544 36.0677L3.18144 35.9424L3.10992 35.8162L3.03839 35.6899L2.96832 35.5632L2.89824 35.436L2.82959 35.3083L2.76144 35.1802L2.69376 35.051L2.62704 34.9219L2.56128 34.7923L2.49601 34.6627L2.43168 34.5322L2.36832 34.4011L2.30544 34.2696L2.24304 34.1381L2.18208 34.0056L2.12161 33.8731L2.06161 33.7402L2.00256 33.6062L1.94448 33.4723L1.88736 33.3379L1.83072 33.2035L1.77504 33.0682L1.71984 32.9323L1.6656 32.7965L1.61232 32.6602L1.56 32.5234L1.50816 32.3861L1.45729 32.2483L1.40736 32.1106L1.35792 31.9718L1.30944 31.8331L1.26192 31.6939L1.21488 31.5547L1.16928 31.4146L1.12417 31.2744L1.07952 31.1338L1.03632 30.9926L0.993603 30.851L0.951841 30.7094L0.911045 30.5674L0.871201 30.4248L0.831841 30.2818L0.793447 30.1387L0.756006 29.9952L0.719517 29.8512L0.683994 29.7067L0.648955 29.5622L0.614883 29.4173L0.581763 29.2718L0.549595 29.1264L0.518394 28.9805L0.488159 28.8341L0.458394 28.6877L0.429595 28.5408L0.401763 28.3934L0.375366 28.2461L0.348955 28.0982L0.323994 27.9499L0.3 27.8016L0.276958 27.6528L0.254399 27.504L0.232793 27.3547L0.212637 27.205L0.192964 27.0547L0.174243 26.905L0.156475 26.7542L0.139673 26.6035L0.123838 26.4523L0.108955 26.3011L0.0950391 26.1494L0.0820752 25.9978L0.0700781 25.8456L0.0590332 25.693L0.0489551 25.5403L0.0393604 25.3872L0.0312012 25.2341L0.0239941 25.081L0.0177539 24.9274L0.0124805 24.7733L0.00767578 24.6192L0.00432129 24.4646L0.00191895 24.3101L0.000483398 24.155L0 24V4.8L0.000483398 4.73808L0.00143555 4.67616L0.00335449 4.61472L0.00624023 4.55328L0.00959473 4.49184L0.013916 4.43088L0.0192041 4.36992L0.0249609 4.30944L0.0312012 4.24896L0.0383936 4.18896L0.0465527 4.12896L0.0551953 4.06944L0.0648047 4.00992L0.0748828 3.95088L0.0859131 3.89184L0.0974414 3.83328L0.109922 3.77472L0.122886 3.71664L0.136802 3.65856L0.151201 3.60096L0.166553 3.54384L0.182402 3.48672L0.198721 3.4296L0.216006 3.37344L0.23376 3.31728L0.25248 3.26112L0.271685 3.20544L0.291357 3.15024L0.311997 3.09552L0.33312 3.0408L0.355195 2.98656L0.377285 2.93232L0.400327 2.87856L0.424321 2.82528L0.448799 2.77248L0.47376 2.71968L0.499204 2.66736L0.525601 2.61552L0.55248 2.56416L0.579844 2.5128L0.607676 2.46192L0.636475 2.41152L0.665757 2.3616L0.695522 2.31168L0.725757 2.26272L0.756475 2.21376L0.788159 2.16528L0.820327 2.11728L0.852964 2.06928L0.886084 2.02224L0.919673 1.9752L0.954243 1.92864L0.988799 1.88304L1.02432 1.83744L1.06033 1.79232L1.0968 1.74768L1.13376 1.70304L1.1712 1.65936L1.20913 1.61616L1.24752 1.57344L1.2864 1.53072L1.32624 1.48896L1.36608 1.44768L1.4064 1.4064L1.44768 1.36608L1.48896 1.32624L1.53072 1.2864L1.57345 1.24752L1.61616 1.20912L1.65936 1.1712L1.70304 1.13376L1.74768 1.0968L1.79232 1.06032L1.83744 1.02432L1.88304 0.9888L1.92864 0.95424L1.9752 0.91968L2.02225 0.88608L2.06928 0.85296L2.11729 0.82032L2.16527 0.78816L2.21376 0.75648L2.26271 0.72576L2.31168 0.69552L2.36161 0.66576L2.41151 0.63648L2.46192 0.60768L2.51279 0.57984L2.56416 0.55248L2.61552 0.5256L2.66736 0.4992L2.71967 0.47376L2.77248 0.4488L2.82527 0.42432L2.87856 0.40032L2.93232 0.37728L2.98655 0.3552L3.0408 0.33312L3.09552 0.312L3.15023 0.29136L3.20544 0.27168L3.26112 0.25248L3.31729 0.23376L3.37345 0.216L3.42959 0.19872L3.48672 0.1824L3.54384 0.16656L3.60097 0.1512L3.65856 0.1368L3.71665 0.12288L3.77473 0.10992L3.83328 0.09744L3.89184 0.08592L3.95087 0.07488L4.00992 0.0648L4.06944 0.0552L4.12895 0.04656L4.18895 0.0384L4.24895 0.0312L4.30944 0.02496L4.36992 0.0192L4.43087 0.01392L4.49184 0.0096L4.55328 0.00624L4.61473 0.00336L4.67616 0.00144L4.73808 0.00048L4.8 0H43.2L43.2619 0.00048ZM4.80624 1.95552L4.76256 1.956L4.7256 1.95648L4.68913 1.95792L4.65215 1.95936L4.61568 1.96128L4.57967 1.96416L4.5432 1.96704L4.50721 1.9704L4.47168 1.97424L4.43568 1.97856L4.40064 1.98336L4.36512 1.98864L4.33008 1.99392L4.29504 2.00016L4.26048 2.0064L4.22544 2.0136L4.19136 2.0208L4.1568 2.02848L4.12271 2.03664L4.08864 2.0448L4.05504 2.05392L4.02144 2.06304L3.98785 2.07312L3.95473 2.0832L3.92161 2.09376L3.88849 2.1048L3.85583 2.11584L3.8232 2.12784L3.79056 2.13984L3.75839 2.15232L3.72672 2.16528L3.69456 2.17824L3.66289 2.19216L3.63168 2.20608L3.60048 2.22048L3.5688 2.23536L3.53808 2.25024L3.50736 2.2656L3.47711 2.28144L3.44688 2.29776L3.41665 2.31456L3.38688 2.33136L3.35711 2.34864L3.32785 2.3664L3.29808 2.38464L3.26928 2.40288L3.24097 2.4216L3.21215 2.44032L3.18384 2.46L3.15552 2.47968L3.12768 2.49984L3.10033 2.52L3.07296 2.54064L3.0456 2.56176L3.0192 2.58288L2.99232 2.60496L2.96591 2.62704L2.94 2.64912L2.91409 2.67168L2.88864 2.69472L2.86368 2.71776L2.83824 2.74128L2.81376 2.76528L2.78928 2.78928L2.76527 2.81376L2.74128 2.83872L2.71775 2.86368L2.69473 2.88864L2.67168 2.91408L2.64913 2.94L2.62704 2.96592L2.60448 2.99232L2.58289 3.0192L2.56176 3.0456L2.54064 3.07296L2.52 3.10032L2.49984 3.12768L2.47967 3.15552L2.46 3.18384L2.44033 3.21216L2.42161 3.24048L2.40289 3.26928L2.38463 3.29856L2.3664 3.32784L2.34864 3.35712L2.33136 3.38688L2.31456 3.41664L2.29775 3.44688L2.28144 3.47712L2.26608 3.50736L2.25023 3.53808L2.23537 3.56928L2.22048 3.60048L2.20608 3.63168L2.19215 3.66288L2.17824 3.69456L2.16527 3.72624L2.15232 3.75888L2.13984 3.79056L2.12785 3.8232L2.11583 3.85584L2.1048 3.88848L2.09376 3.9216L2.0832 3.95472L2.07312 3.98784L2.06353 4.02144L2.05392 4.05504L2.0448 4.08912L2.03665 4.12272L2.02849 4.1568L2.0208 4.19088L2.0136 4.22592L2.0064 4.26048L2.00016 4.29504L1.99392 4.33008L1.98864 4.36512L1.98335 4.40064L1.97856 4.43616L1.97424 4.4712L1.97041 4.5072L1.96704 4.5432L1.96416 4.57968L1.96128 4.61568L1.95936 4.65216L1.95792 4.68864L1.95647 4.7256L1.95601 4.76304L1.95552 4.80624V23.9971L1.95601 24.1426L1.95744 24.2851L1.95984 24.4277L1.96271 24.5693L1.96704 24.7114L1.97184 24.853L1.9776 24.9941L1.98432 25.1352L1.992 25.2758L2.00016 25.4165L2.00977 25.5566L2.01984 25.6968L2.03087 25.8365L2.04289 25.9762L2.05584 26.1154L2.06977 26.2546L2.08417 26.3933L2.09952 26.532L2.11583 26.6702L2.13312 26.808L2.15087 26.9458L2.16959 27.083L2.18928 27.2203L2.20992 27.3571L2.23104 27.4939L2.25312 27.6302L2.27616 27.7661L2.30016 27.9019L2.32463 28.0373L2.35008 28.1722L2.37647 28.3075L2.40384 28.4419L2.43168 28.5763L2.46048 28.7102L2.48977 28.8437L2.52048 28.9771L2.55168 29.1101L2.58335 29.243L2.61647 29.375L2.65008 29.5075L2.68417 29.639L2.7192 29.7706L2.7552 29.9016L2.79215 30.0322L2.82959 30.1627L2.868 30.2933L2.90688 30.4229L2.94672 30.5525L2.98752 30.6816L3.0288 30.8102L3.07104 30.9389L3.11424 31.0666L3.15792 31.1942L3.20208 31.3219L3.24768 31.4491L3.29328 31.5758L3.34033 31.7021L3.38785 31.8278L3.43583 31.9536L3.4848 32.0789L3.53473 32.2037L3.58512 32.328L3.63647 32.4523L3.68832 32.5762L3.74064 32.699L3.7944 32.8224L3.84816 32.9448L3.90335 33.0667L3.95856 33.1886L4.0152 33.3101L4.07184 33.431L4.12992 33.552L4.188 33.672L4.24704 33.792L4.30704 33.911L4.36752 34.0301L4.42896 34.1486L4.49087 34.2667L4.55328 34.3848L4.61665 34.5019L4.68048 34.619L4.74527 34.7352L4.81056 34.8514L4.8768 34.967L4.94353 35.0822L5.01072 35.197L5.07888 35.3112L5.14752 35.425L5.21711 35.5387L5.28721 35.6515L5.35775 35.7638L5.42928 35.8762L5.50128 35.9875L5.57424 36.0989L5.64721 36.2093L5.72161 36.3197L5.79601 36.4296L5.87136 36.5386L5.94721 36.6475L6.02399 36.756L6.10128 36.8635L6.17903 36.971L6.25729 37.0781L6.33647 37.1842L6.41616 37.2902L6.49632 37.3958L6.57744 37.5005L6.65903 37.6051L6.74112 37.7088L6.82416 37.8125L6.90721 37.9152L6.9912 38.0174L7.07616 38.1197L7.16112 38.221L7.24704 38.3218L7.33345 38.4221L7.42033 38.5219L7.50816 38.6213L7.59601 38.7202L7.6848 38.8181L7.77409 38.916L7.86432 39.013L7.95456 39.1094L8.04576 39.2059L8.13744 39.301L8.22959 39.396L8.32225 39.4906L8.41537 39.5846L8.50944 39.6778L8.60399 39.7704L8.69903 39.8626L8.79456 39.9542L8.89056 40.0454L8.98704 40.1357L9.08399 40.2259L9.18192 40.3152L9.27984 40.404L9.37872 40.4918L9.47808 40.5797L9.57792 40.6666L9.67824 40.753L9.77903 40.8389L9.88033 40.9238L9.98256 41.0083L10.0848 41.0928L10.1875 41.1758L10.2912 41.2589L10.3949 41.341L10.4995 41.4226L10.6042 41.5037L10.7098 41.5838L10.8158 41.6635L10.9219 41.7427L11.029 41.821L11.1365 41.8987L11.244 41.976L11.3525 42.0528L11.4614 42.1286L11.5704 42.204L11.6803 42.2784L11.7907 42.3528L11.9011 42.4258L12.0125 42.4987L12.1238 42.5707L12.2362 42.6422L12.3485 42.7128L12.4613 42.7829L12.575 42.8525L12.6888 42.9211L12.803 42.9893L12.9178 43.0565L13.033 43.1232L13.1486 43.1894L13.2648 43.2547L13.381 43.3195L13.4981 43.3834L13.6152 43.4467L13.7328 43.5091L13.8514 43.571L13.9699 43.6325L14.089 43.693L14.208 43.753L14.328 43.812L14.448 43.8706L14.569 43.9282L14.6899 43.9848L14.8114 44.0414L14.9328 44.0966L15.0552 44.1518L15.1776 44.2056L15.301 44.2594L15.4243 44.3117L15.5477 44.3635L15.672 44.4149L15.7963 44.4653L15.9211 44.5152L16.0464 44.5642L16.1722 44.6122L16.2979 44.6597L16.4246 44.7067L16.5509 44.7523L16.6781 44.7979L16.8053 44.8421L16.9334 44.8858L17.0611 44.929L17.1898 44.9712L17.3184 45.0125L17.4475 45.0533L17.5771 45.0931L17.7072 45.132L17.8373 45.1704L17.9674 45.2078L18.0984 45.2448L18.2294 45.2803L18.361 45.3158L18.493 45.3499L18.625 45.3835L18.7574 45.4166L18.8899 45.4483L19.0229 45.4795L19.1563 45.5098L19.2898 45.5395L19.4242 45.5683L19.5581 45.5962L19.6925 45.6235L19.8274 45.6499L19.9627 45.6754L20.0981 45.6998L20.2339 45.7238L20.3698 45.7469L20.5061 45.769L20.6429 45.7901L20.7797 45.8107L20.917 45.8304L21.0542 45.8491L21.192 45.8669L21.3298 45.8842L21.468 45.9005L21.6067 45.9158L21.7454 45.9302L21.8846 45.9442L22.0238 45.9571L22.1635 45.9691L22.3032 45.9802L22.4434 45.9902L22.5835 45.9998L22.7242 46.008L22.8648 46.0157L23.0059 46.0224L23.147 46.0282L23.2886 46.033L23.4307 46.0373L23.5728 46.0402L23.7149 46.0426L23.8574 46.044L24 46.0445L24.1426 46.044L24.2851 46.0426L24.4272 46.0402L24.5693 46.0373L24.7114 46.033L24.853 46.0282L24.9941 46.0224L25.1352 46.0157L25.2758 46.008L25.4165 45.9998L25.5566 45.9902L25.6968 45.9802L25.8365 45.9691L25.9762 45.9571L26.1154 45.9442L26.2546 45.9302L26.3933 45.9158L26.532 45.9005L26.6702 45.8842L26.808 45.8669L26.9458 45.8491L27.083 45.8304L27.2203 45.8107L27.3571 45.7901L27.4939 45.769L27.6302 45.7469L27.7661 45.7238L27.9019 45.6998L28.0373 45.6754L28.1726 45.6499L28.3075 45.6235L28.4419 45.5962L28.5758 45.5683L28.7102 45.5395L28.8437 45.5098L28.9771 45.4795L29.1101 45.4483L29.2426 45.4166L29.375 45.3835L29.507 45.3499L29.639 45.3158L29.7705 45.2803L29.9016 45.2448L30.0326 45.2078L30.1627 45.1704L30.2928 45.132L30.4229 45.0931L30.5525 45.0533L30.6816 45.0125L30.8102 44.9712L30.9389 44.929L31.0666 44.8858L31.1947 44.8421L31.3219 44.7979L31.4491 44.7523L31.5754 44.7067L31.7021 44.6597L31.8278 44.6122L31.9536 44.5642L32.0789 44.5152L32.2037 44.4653L32.328 44.4149L32.4523 44.3635L32.5757 44.3117L32.699 44.2594L32.8224 44.2056L32.9448 44.1518L33.0672 44.0966L33.1886 44.0414L33.3101 43.9848L33.431 43.9282L33.552 43.8706L33.672 43.812L33.792 43.753L33.911 43.693L34.0301 43.6325L34.1486 43.571L34.2672 43.5091L34.3848 43.4467L34.5019 43.3834L34.619 43.3195L34.7352 43.2547L34.8514 43.1894L34.967 43.1232L35.0822 43.0565L35.197 42.9893L35.3112 42.9211L35.425 42.8525L35.5387 42.7829L35.6515 42.7128L35.7638 42.6422L35.8762 42.5707L35.9875 42.4987L36.0989 42.4258L36.2093 42.3528L36.3197 42.2784L36.4296 42.204L36.5386 42.1286L36.6475 42.0528L36.756 41.976L36.8635 41.8987L36.971 41.821L37.0781 41.7427L37.1842 41.6635L37.2902 41.5838L37.3958 41.5037L37.5005 41.4226L37.6051 41.341L37.7088 41.2589L37.8125 41.1758L37.9152 41.0928L38.0174 41.0083L38.1197 40.9238L38.221 40.8389L38.3217 40.753L38.4221 40.6666L38.5219 40.5797L38.6213 40.4918L38.7202 40.404L38.8181 40.3152L38.916 40.2259L39.0129 40.1357L39.1095 40.0454L39.2054 39.9542L39.301 39.8626L39.396 39.7704L39.4905 39.6778L39.5846 39.5846L39.6778 39.4906L39.7704 39.396L39.8626 39.301L39.9542 39.2059L40.0454 39.1094L40.1357 39.013L40.2259 38.916L40.3152 38.8181L40.404 38.7202L40.4918 38.6213L40.5797 38.5219L40.6666 38.4221L40.7529 38.3218L40.8389 38.221L40.9238 38.1197L41.0088 38.0174L41.0928 37.9152L41.1758 37.8125L41.2589 37.7088L41.341 37.6051L41.4226 37.5005L41.5037 37.3958L41.5838 37.2902L41.6635 37.1842L41.7427 37.0781L41.821 36.971L41.8987 36.8635L41.976 36.756L42.0528 36.6475L42.1286 36.5386L42.204 36.4296L42.2784 36.3197L42.3528 36.2093L42.4258 36.0989L42.4987 35.9875L42.5707 35.8762L42.6422 35.7638L42.7128 35.6515L42.7829 35.5387L42.8525 35.425L42.9211 35.3112L42.9893 35.197L43.0565 35.0822L43.1232 34.967L43.1895 34.8514L43.2547 34.7352L43.3195 34.619L43.3834 34.5019L43.4467 34.3848L43.5091 34.2667L43.571 34.1486L43.6325 34.0301L43.6929 33.911L43.7529 33.792L43.812 33.672L43.8701 33.552L43.9282 33.431L43.9848 33.3101L44.0414 33.1886L44.0966 33.0667L44.1518 32.9448L44.2056 32.8224L44.2593 32.699L44.3117 32.5762L44.3635 32.4523L44.4149 32.328L44.4653 32.2037L44.5152 32.0789L44.5641 31.9536L44.6122 31.8278L44.6597 31.7021L44.7067 31.5758L44.7523 31.4491L44.7979 31.3219L44.8421 31.1942L44.8858 31.0666L44.929 30.9389L44.9712 30.8102L45.0125 30.6816L45.0533 30.5525L45.0931 30.4229L45.132 30.2933L45.1704 30.1627L45.2078 30.0322L45.2448 29.9016L45.2808 29.7706L45.3158 29.639L45.3499 29.5075L45.3835 29.375L45.4166 29.243L45.4483 29.1101L45.4795 28.9771L45.5102 28.8437L45.5395 28.7102L45.5683 28.5763L45.5962 28.4419L45.6235 28.3075L45.6499 28.1722L45.6754 28.0373L45.6998 27.9019L45.7238 27.7661L45.7469 27.6302L45.769 27.4939L45.7901 27.3571L45.8107 27.2203L45.8304 27.083L45.8491 26.9458L45.8669 26.808L45.8841 26.6702L45.9005 26.532L45.9158 26.3933L45.9302 26.2546L45.9441 26.1154L45.9571 25.9762L45.9691 25.8365L45.9802 25.6968L45.9902 25.5566L45.9998 25.4165L46.008 25.2758L46.0157 25.1352L46.0224 24.9941L46.0282 24.853L46.0329 24.7114L46.0373 24.5693L46.0402 24.4277L46.0426 24.2851L46.044 24.1426L46.0445 23.9971V4.80624L46.044 4.76304L46.0435 4.7256L46.0421 4.68864L46.0407 4.65216L46.0387 4.61568L46.0358 4.57968L46.0329 4.5432L46.0296 4.5072L46.0258 4.4712L46.0214 4.43616L46.0166 4.40064L46.0114 4.36512L46.0061 4.33008L45.9998 4.29504L45.9936 4.26048L45.9864 4.22592L45.9792 4.19088L45.9715 4.1568L45.9634 4.12272L45.9552 4.08912L45.9461 4.05504L45.9365 4.02144L45.9269 3.98784L45.9168 3.95472L45.9062 3.9216L45.8952 3.88848L45.8841 3.85584L45.8722 3.8232L45.8602 3.79056L45.8477 3.75888L45.8347 3.72624L45.8217 3.69456L45.8078 3.66288L45.7939 3.63168L45.7795 3.60048L45.7646 3.56928L45.7498 3.53808L45.7339 3.50736L45.7186 3.47712L45.7022 3.44688L45.6854 3.41664L45.6686 3.38688L45.6514 3.35712L45.6336 3.32784L45.6153 3.29856L45.5971 3.26928L45.5784 3.24048L45.5597 3.21216L45.54 3.18384L45.5203 3.15552L45.5002 3.12768L45.48 3.10032L45.4593 3.07296L45.4383 3.0456L45.4171 3.0192L45.3955 2.99232L45.3729 2.96592L45.3509 2.94L45.3283 2.91408L45.3053 2.88864L45.2822 2.86368L45.2587 2.83872L45.2347 2.81376L45.2107 2.78928L45.1862 2.76528L45.1617 2.74128L45.1363 2.71776L45.1114 2.69472L45.0859 2.67168L45.06 2.64912L45.0341 2.62704L45.0077 2.60496L44.9808 2.58288L44.9544 2.56176L44.9271 2.54064L44.8997 2.52L44.8723 2.49984L44.8445 2.47968L44.8162 2.46L44.7878 2.44032L44.759 2.4216L44.7307 2.40288L44.7019 2.38464L44.6722 2.3664L44.6429 2.34864L44.6131 2.33136L44.5834 2.31456L44.5531 2.29776L44.5229 2.28144L44.4926 2.2656L44.4619 2.25024L44.4312 2.23536L44.3995 2.22048L44.3683 2.20608L44.3371 2.19216L44.3054 2.17824L44.2733 2.16528L44.2416 2.15232L44.2095 2.13984L44.1768 2.12784L44.1441 2.11584L44.1115 2.1048L44.0784 2.09376L44.0453 2.0832L44.0122 2.07312L43.9786 2.06304L43.945 2.05392L43.9114 2.0448L43.8773 2.03664L43.8432 2.02848L43.8086 2.0208L43.7746 2.0136L43.7395 2.0064L43.705 2.00016L43.6699 1.99392L43.6349 1.98864L43.5993 1.98336L43.5643 1.97856L43.5283 1.97424L43.4928 1.9704L43.4568 1.96704L43.4203 1.96416L43.3843 1.96128L43.3478 1.95936L43.3109 1.95792L43.2744 1.95648L43.2374 1.956L43.1938 1.95552H4.80624Z" fill="#174E83"/>
<path fill-rule="evenodd" clip-rule="evenodd" d="M24.0307 4.8L24.0615 4.80067L24.0924 4.802L24.1232 4.80334L24.1541 4.80467L24.1843 4.80734L24.2144 4.80934L24.2453 4.81267L24.2755 4.81534L24.3057 4.81934L24.3351 4.82334L24.3653 4.828L24.3948 4.83267L24.4243 4.83734L24.4538 4.84267L24.4832 4.84867L24.5127 4.85467L24.5415 4.86134L24.5703 4.86867L24.5991 4.87534L24.6279 4.88334L24.6567 4.89134L24.6848 4.89934L24.713 4.908L24.7411 4.91667L24.7692 4.926L24.7973 4.936L24.8247 4.946L24.8522 4.956L24.8796 4.96667L24.9338 4.98867L24.9872 5.012L25.04 5.03667L25.0922 5.06267L25.1436 5.09L25.1943 5.118L25.2437 5.14734L25.2931 5.178L25.3411 5.21L25.3891 5.24334L25.4357 5.27734L25.481 5.312L25.5262 5.348L25.5701 5.38534L25.6133 5.424L25.6551 5.46334L25.6963 5.50334L25.7367 5.54467L25.7758 5.58667L25.8142 5.63L25.8513 5.674L25.8876 5.71867L25.9226 5.76467L25.9568 5.81134L25.9898 5.85867L26.0213 5.90667L26.0522 5.956L26.0817 6.006L26.1098 6.05667L26.1372 6.108L26.1632 6.16L26.1879 6.21267L26.2113 6.266L26.2332 6.32067L26.2442 6.348L26.2538 6.37534L26.264 6.40267L26.2737 6.43067L26.2826 6.45867L26.2922 6.48667L26.3004 6.51467L26.3086 6.54334L26.3168 6.572L26.3244 6.60067L26.3312 6.62934L26.3381 6.658L26.345 6.68734L26.3511 6.71667L26.3566 6.746L26.3621 6.77534L26.3676 6.80467L26.3724 6.83467L26.3765 6.86467L26.3806 6.89467L26.384 6.92467L26.3875 6.95467L26.3902 6.98534L26.393 7.01534L26.395 7.04601L26.3964 7.07667L26.3978 7.10734L26.3991 7.13801L26.3998 7.16934V7.20001V26.4V26.4307L26.3991 26.462L26.3978 26.4927L26.3964 26.5234L26.395 26.554L26.393 26.5847L26.3902 26.6147L26.3875 26.6454L26.384 26.6754L26.3806 26.7054L26.3765 26.7354L26.3724 26.7654L26.3676 26.7954L26.3621 26.8247L26.3566 26.854L26.3511 26.8834L26.345 26.9127L26.3381 26.942L26.3312 26.9707L26.3244 26.9994L26.3168 27.028L26.3086 27.0567L26.3004 27.0854L26.2922 27.1134L26.2826 27.1414L26.2737 27.1694L26.264 27.1974L26.2538 27.2247L26.2442 27.252L26.2332 27.2794L26.2113 27.334L26.1879 27.3874L26.1632 27.44L26.1372 27.492L26.1098 27.5434L26.0817 27.594L26.0522 27.644L26.0213 27.6934L25.9898 27.7414L25.9568 27.7887L25.9226 27.8354L25.8876 27.8814L25.8513 27.926L25.8142 27.97L25.7758 28.0134L25.7367 28.0554L25.6963 28.0967L25.6551 28.1367L25.6133 28.176L25.5701 28.2147L25.5262 28.252L25.481 28.288L25.4357 28.3227L25.3891 28.3567L25.3411 28.39L25.2931 28.422L25.2437 28.4527L25.1943 28.482L25.1436 28.51L25.0922 28.5374L25.04 28.5634L24.9872 28.588L24.9338 28.6114L24.8796 28.6334L24.8522 28.644L24.8247 28.654L24.7973 28.664L24.7692 28.674L24.7411 28.6834L24.713 28.692L24.6848 28.7007L24.6567 28.7087L24.6279 28.7167L24.5991 28.7247L24.5703 28.7314L24.5415 28.7387L24.5127 28.7454L24.4832 28.7514L24.4538 28.7574L24.4243 28.7627L24.3948 28.7674L24.3653 28.772L24.3351 28.7767L24.3057 28.7807L24.2755 28.7847L24.2453 28.7874L24.2144 28.7907L24.1843 28.7927L24.1541 28.7954L24.1232 28.7967L24.0924 28.798L24.0615 28.7994L24.0307 28.8H23.9998H23.969L23.9381 28.7994L23.9072 28.798L23.8764 28.7967L23.8455 28.7954L23.8154 28.7927L23.7852 28.7907L23.7543 28.7874L23.7242 28.7847L23.694 28.7807L23.6645 28.7767L23.6343 28.772L23.6049 28.7674L23.5754 28.7627L23.5459 28.7574L23.5164 28.7514L23.4869 28.7454L23.4581 28.7387L23.4293 28.7314L23.4005 28.7247L23.3717 28.7167L23.3429 28.7087L23.3148 28.7007L23.2867 28.692L23.2586 28.6834L23.2304 28.674L23.2023 28.664L23.1749 28.654L23.1475 28.644L23.1201 28.6334L23.0659 28.6114L23.0124 28.588L22.9596 28.5634L22.9075 28.5374L22.8561 28.51L22.8053 28.482L22.7559 28.4527L22.7066 28.422L22.6586 28.39L22.6106 28.3567L22.5639 28.3227L22.5187 28.288L22.4734 28.252L22.4295 28.2147L22.3863 28.176L22.3445 28.1367L22.3034 28.0967L22.2629 28.0554L22.2238 28.0134L22.1854 27.97L22.1484 27.926L22.1121 27.8814L22.0771 27.8354L22.0428 27.7887L22.0099 27.7414L21.9783 27.6934L21.9475 27.644L21.918 27.594L21.8899 27.5434L21.8624 27.492L21.8364 27.44L21.8117 27.3874L21.7884 27.334L21.7665 27.2794L21.7555 27.252L21.7459 27.2247L21.7356 27.1974L21.726 27.1694L21.7171 27.1414L21.7075 27.1134L21.6992 27.0854L21.691 27.0567L21.6828 27.028L21.6752 26.9994L21.6684 26.9707L21.6615 26.942L21.6547 26.9127L21.6485 26.8834L21.643 26.854L21.6375 26.8247L21.632 26.7954L21.6273 26.7654L21.6231 26.7354L21.619 26.7054L21.6156 26.6754L21.6122 26.6454L21.6094 26.6147L21.6067 26.5847L21.6046 26.554L21.6033 26.5234L21.6019 26.4927L21.6005 26.462L21.5998 26.4307V26.4V7.20001V7.16934L21.6005 7.13801L21.6019 7.10734L21.6033 7.07667L21.6046 7.04601L21.6067 7.01534L21.6094 6.98534L21.6122 6.95467L21.6156 6.92467L21.619 6.89467L21.6231 6.86467L21.6273 6.83467L21.632 6.80467L21.6375 6.77534L21.643 6.746L21.6485 6.71667L21.6547 6.68734L21.6615 6.658L21.6684 6.62934L21.6752 6.60067L21.6828 6.572L21.691 6.54334L21.6992 6.51467L21.7075 6.48667L21.7171 6.45867L21.726 6.43067L21.7356 6.40267L21.7459 6.37534L21.7555 6.348L21.7665 6.32067L21.7884 6.266L21.8117 6.21267L21.8364 6.16L21.8624 6.108L21.8899 6.05667L21.918 6.006L21.9475 5.956L21.9783 5.90667L22.0099 5.85867L22.0428 5.81134L22.0771 5.76467L22.1121 5.71867L22.1484 5.674L22.1854 5.63L22.2238 5.58667L22.2629 5.54467L22.3034 5.50334L22.3445 5.46334L22.3863 5.424L22.4295 5.38534L22.4734 5.348L22.5187 5.312L22.5639 5.27734L22.6106 5.24334L22.6586 5.21L22.7066 5.178L22.7559 5.14734L22.8053 5.118L22.8561 5.09L22.9075 5.06267L22.9596 5.03667L23.0124 5.012L23.0659 4.98867L23.1201 4.96667L23.1475 4.956L23.1749 4.946L23.2023 4.936L23.2304 4.926L23.2586 4.91667L23.2867 4.908L23.3148 4.89934L23.3429 4.89134L23.3717 4.88334L23.4005 4.87534L23.4293 4.86867L23.4581 4.86134L23.4869 4.85467L23.5164 4.84867L23.5459 4.84267L23.5754 4.83734L23.6049 4.83267L23.6343 4.828L23.6645 4.82334L23.694 4.81934L23.7242 4.81534L23.7543 4.81267L23.7852 4.80934L23.8154 4.80734L23.8455 4.80467L23.8764 4.80334L23.9072 4.802L23.9381 4.80067L23.969 4.8H23.9998H24.0307ZM23.9854 6.08934H23.9703L23.9559 6.09L23.9415 6.09067L23.9271 6.09134L23.9134 6.092L23.899 6.09334L23.8853 6.09467L23.8709 6.096L23.8572 6.098L23.8435 6.1L23.8298 6.102L23.816 6.104L23.8023 6.106L23.7886 6.10867L23.7749 6.11134L23.7619 6.114L23.7482 6.11734L23.7351 6.12067L23.7221 6.124L23.7084 6.12734L23.6954 6.13067L23.6823 6.13467L23.6693 6.13867L23.657 6.14267L23.6439 6.14734L23.6309 6.15134L23.6186 6.156L23.6055 6.16067L23.5973 6.164L23.5685 6.176L23.5438 6.18667L23.5198 6.198L23.4958 6.21L23.4718 6.22267L23.4485 6.23534L23.4252 6.24934L23.4026 6.26334L23.3799 6.278L23.358 6.29334L23.3361 6.30934L23.3148 6.32534L23.2942 6.34267L23.2737 6.36L23.2538 6.37734L23.2339 6.396L23.2147 6.41467L23.1955 6.434L23.1776 6.45334L23.1598 6.474L23.142 6.494L23.1255 6.51534L23.1091 6.53667L23.0933 6.558L23.0775 6.58067L23.0631 6.60267L23.0487 6.62534L23.035 6.64867L23.022 6.672L23.0097 6.69534L22.998 6.72L22.9863 6.74401L22.9754 6.76867L22.9637 6.79734L22.9603 6.806L22.9555 6.81867L22.9514 6.83134L22.9466 6.844L22.9425 6.85667L22.9383 6.86934L22.9342 6.88267L22.9308 6.896L22.9274 6.90867L22.9239 6.922L22.9205 6.93534L22.9171 6.94867L22.9143 6.962L22.9116 6.97534L22.9088 6.98867L22.9061 7.00201L22.9041 7.01601L22.9013 7.02934L22.8992 7.04334L22.8979 7.05734L22.8958 7.07134L22.8945 7.08534L22.8931 7.09867L22.8917 7.11334L22.891 7.12734L22.8903 7.142L22.8897 7.15667L22.889 7.17067V7.18534V7.20401V26.396V26.4147V26.4294L22.8897 26.4434L22.8903 26.458L22.891 26.4727L22.8917 26.4867L22.8931 26.5014L22.8945 26.5147L22.8958 26.5287L22.8979 26.5427L22.8992 26.5567L22.9013 26.5707L22.9041 26.584L22.9061 26.598L22.9088 26.6114L22.9116 26.6247L22.9143 26.638L22.9171 26.6514L22.9205 26.6647L22.9239 26.678L22.9274 26.6914L22.9308 26.704L22.9342 26.7174L22.9383 26.7307L22.9425 26.7434L22.9466 26.756L22.9514 26.7687L22.9555 26.7814L22.9603 26.794L22.9637 26.8027L22.9754 26.8314L22.9863 26.856L22.998 26.88L23.0097 26.9047L23.022 26.928L23.035 26.9514L23.0487 26.9747L23.0631 26.9974L23.0775 27.0194L23.0933 27.042L23.1091 27.0634L23.1255 27.0847L23.142 27.106L23.1598 27.126L23.1776 27.1467L23.1955 27.166L23.2147 27.1854L23.2339 27.204L23.2538 27.2227L23.2737 27.24L23.2942 27.2574L23.3148 27.2747L23.3361 27.2907L23.358 27.3067L23.3799 27.322L23.4026 27.3367L23.4252 27.3507L23.4485 27.3647L23.4718 27.3774L23.4958 27.39L23.5198 27.402L23.5438 27.4134L23.5685 27.424L23.5973 27.436L23.6055 27.4394L23.6186 27.444L23.6309 27.4487L23.6439 27.4527L23.657 27.4574L23.6693 27.4614L23.6823 27.4654L23.6954 27.4694L23.7084 27.4727L23.7221 27.476L23.7351 27.4794L23.7482 27.4827L23.7619 27.486L23.7749 27.4887L23.7886 27.4914L23.8023 27.494L23.816 27.496L23.8298 27.498L23.8435 27.5L23.8572 27.502L23.8709 27.504L23.8853 27.5054L23.899 27.5067L23.9134 27.508L23.9271 27.5087L23.9415 27.5094L23.9559 27.51L23.9703 27.5107H23.9854L23.9998 27.5114L24.0142 27.5107H24.0293L24.0437 27.51L24.0581 27.5094L24.0725 27.5087L24.0862 27.508L24.1006 27.5067L24.1143 27.5054L24.1287 27.504L24.1425 27.502L24.1562 27.5L24.1699 27.498L24.1836 27.496L24.1973 27.494L24.211 27.4914L24.2247 27.4887L24.2378 27.486L24.2515 27.4827L24.2645 27.4794L24.2775 27.476L24.2912 27.4727L24.3043 27.4694L24.3173 27.4654L24.3303 27.4614L24.3427 27.4574L24.3557 27.4527L24.3687 27.4487L24.3811 27.444L24.3941 27.4394L24.4023 27.436L24.4311 27.424L24.4558 27.4134L24.4798 27.402L24.5038 27.39L24.5278 27.3774L24.5511 27.3647L24.5745 27.3507L24.5971 27.3367L24.6197 27.322L24.6417 27.3067L24.6636 27.2907L24.6848 27.2747L24.7054 27.2574L24.726 27.24L24.7459 27.2227L24.7658 27.204L24.785 27.1854L24.8042 27.166L24.822 27.1467L24.8398 27.126L24.8577 27.106L24.8741 27.0847L24.8906 27.0634L24.9063 27.042L24.9221 27.0194L24.9365 26.9974L24.9509 26.9747L24.9646 26.9514L24.9776 26.928L24.99 26.9047L25.0016 26.88L25.0133 26.856L25.0243 26.8314L25.0359 26.8027L25.0394 26.794L25.0442 26.7814L25.0483 26.7687L25.0531 26.756L25.0572 26.7434L25.0613 26.7307L25.0654 26.7174L25.0688 26.704L25.0723 26.6914L25.0757 26.678L25.0791 26.6647L25.0826 26.6514L25.0853 26.638L25.0881 26.6247L25.0908 26.6114L25.0935 26.598L25.0956 26.584L25.0983 26.5707L25.1004 26.5567L25.1018 26.5427L25.1038 26.5287L25.1052 26.5147L25.1066 26.5014L25.1079 26.4867L25.1086 26.4727L25.1093 26.458L25.11 26.4434L25.1107 26.4294V26.4147V26.396V7.20401V7.18534V7.17067L25.11 7.15667L25.1093 7.142L25.1086 7.12734L25.1079 7.11334L25.1066 7.09867L25.1052 7.08534L25.1038 7.07134L25.1018 7.05734L25.1004 7.04334L25.0983 7.02934L25.0956 7.01601L25.0935 7.00201L25.0908 6.98867L25.0881 6.97534L25.0853 6.962L25.0826 6.94867L25.0791 6.93534L25.0757 6.922L25.0723 6.90867L25.0688 6.896L25.0654 6.88267L25.0613 6.86934L25.0572 6.85667L25.0531 6.844L25.0483 6.83134L25.0442 6.81867L25.0394 6.806L25.0359 6.79734L25.0243 6.76867L25.0133 6.74401L25.0016 6.72L24.99 6.69534L24.9776 6.672L24.9646 6.64867L24.9509 6.62534L24.9365 6.60267L24.9221 6.58067L24.9063 6.558L24.8906 6.53667L24.8741 6.51534L24.8577 6.494L24.8398 6.474L24.822 6.45334L24.8042 6.434L24.785 6.41467L24.7658 6.396L24.7459 6.37734L24.726 6.36L24.7054 6.34267L24.6848 6.32534L24.6636 6.30934L24.6417 6.29334L24.6197 6.278L24.5971 6.26334L24.5745 6.24934L24.5511 6.23534L24.5278 6.22267L24.5038 6.21L24.4798 6.198L24.4558 6.18667L24.4311 6.176L24.4023 6.164L24.3941 6.16067L24.3811 6.156L24.3687 6.15134L24.3557 6.14734L24.3427 6.14267L24.3303 6.13867L24.3173 6.13467L24.3043 6.13067L24.2912 6.12734L24.2775 6.124L24.2645 6.12067L24.2515 6.11734L24.2378 6.114L24.2247 6.11134L24.211 6.10867L24.1973 6.106L24.1836 6.104L24.1699 6.102L24.1562 6.1L24.1425 6.098L24.1287 6.096L24.1143 6.09467L24.1006 6.09334L24.0862 6.092L24.0725 6.09134L24.0581 6.09067L24.0437 6.09L24.0293 6.08934H24.0142L23.9998 6.08867L23.9854 6.08934Z" fill="#174E83"/>
<path fill-rule="evenodd" clip-rule="evenodd" d="M24.0312 4.8L24.0619 4.80096L24.0926 4.80192L24.1234 4.80336L24.1541 4.8048L24.1843 4.8072L24.215 4.8096L24.2453 4.81248L24.2755 4.81584L24.3053 4.8192L24.3355 4.82352L24.3653 4.82784L24.395 4.83264L24.4248 4.83744L24.4541 4.8432L24.4834 4.84896L24.5126 4.8552L24.5419 4.86144L24.5707 4.86816L24.5995 4.87584L24.6283 4.88304L24.6566 4.8912L24.685 4.89936L24.7133 4.908L24.7416 4.91712L24.7694 4.92624L24.7973 4.93584L24.8246 4.94592L24.8525 4.956L24.8798 4.96656L24.9336 4.98864L24.9874 5.01216L25.0402 5.03664L25.092 5.06256L25.1434 5.08992L25.1942 5.11824L25.2442 5.14752L25.2931 5.17824L25.3416 5.20992L25.3891 5.24304L25.4357 5.27712L25.4813 5.31216L25.5264 5.34816L25.5701 5.3856L25.6133 5.424L25.6555 5.46288L25.6968 5.5032L25.7371 5.54448L25.776 5.58672L25.8144 5.62992L25.8518 5.6736L25.8878 5.71872L25.9229 5.76432L25.957 5.81088L25.9901 5.8584L26.0218 5.90688L26.0525 5.95584L26.0818 6.00576L26.1101 6.05664L26.1374 6.108L26.1634 6.15984L26.1878 6.21264L26.2114 6.2664L26.2334 6.32016L26.244 6.34752L26.2541 6.37536L26.2642 6.40272L26.2738 6.43056L26.2829 6.4584L26.292 6.48672L26.3006 6.51504L26.3088 6.54336L26.317 6.57168L26.3242 6.60048L26.3318 6.62928L26.3386 6.65808L26.3448 6.68736L26.351 6.71664L26.3568 6.74592L26.3626 6.7752L26.3674 6.80496L26.3722 6.83472L26.3765 6.86448L26.3808 6.89472L26.3842 6.92448L26.3875 6.95472L26.3904 6.98496L26.3928 7.01568L26.3952 7.04592L26.3966 7.07664L26.3981 7.10736L26.399 7.13808L26.4 7.1688V7.2V12.48H39.7008L39.7397 12.4805L39.7786 12.481L39.8174 12.4824L39.8558 12.4838L39.8942 12.4862L39.9326 12.4886L39.971 12.492L40.009 12.4958L40.0474 12.4997L40.0848 12.5045L40.1227 12.5093L40.1602 12.515L40.1976 12.5208L40.235 12.527L40.272 12.5342L40.309 12.5414L40.3454 12.5491L40.3824 12.5573L40.4184 12.5659L40.4549 12.575L40.4909 12.5846L40.5269 12.5947L40.5624 12.6048L40.5979 12.6158L40.6334 12.6269L40.6685 12.6389L40.7035 12.6509L40.7386 12.6634L40.7731 12.6763L40.8072 12.6898L40.8413 12.7032L40.8754 12.7176L40.9095 12.732L40.9426 12.7469L40.9762 12.7622L41.0093 12.7781L41.0419 12.7939L41.0746 12.8107L41.1072 12.8275L41.1393 12.8448L41.1715 12.8621L41.2032 12.8803L41.2344 12.8986L41.2656 12.9173L41.2968 12.9365L41.3275 12.9562L41.3582 12.9758L41.3885 12.996L41.4183 13.0166L41.448 13.0373L41.4773 13.0584L41.5065 13.08L41.5358 13.1021L41.5641 13.1242L41.5925 13.1467L41.6208 13.1698L41.6486 13.1933L41.676 13.2168L41.7034 13.2408L41.7302 13.2648L41.7571 13.2893L41.7835 13.3142L41.8095 13.3392L41.8354 13.3646L41.8608 13.3906L41.8858 13.4165L41.9107 13.4429L41.9352 13.4698L41.9597 13.4966L41.9832 13.524L42.0067 13.5514L42.0302 13.5792L42.0533 13.6075L42.0758 13.6358L42.0979 13.6642L42.12 13.6934L42.1416 13.7227L42.1627 13.752L42.1834 13.7818L42.204 13.8115L42.2241 13.8418L42.2438 13.8725L42.2635 13.9032L42.2827 13.9344L42.3014 13.9656L42.3197 13.9968L42.3379 14.0285L42.3552 14.0606L42.3725 14.0928L42.3893 14.1254L42.4061 14.1581L42.4219 14.1907L42.4378 14.2238L42.4531 14.2574L42.468 14.291L42.4824 14.3246L42.4968 14.3587L42.5102 14.3928L42.5237 14.4269L42.5366 14.4614L42.5491 14.4965L42.5611 14.5315L42.5731 14.5666L42.5841 14.6021L42.5952 14.6376L42.6053 14.6731L42.6153 14.7091L42.625 14.7451L42.6341 14.7816L42.6427 14.8176L42.6509 14.8546L42.6586 14.891L42.6658 14.928L42.6729 14.965L42.6792 15.0024L42.685 15.0398L42.6907 15.0773L42.6955 15.1152L42.7003 15.1526L42.7041 15.191L42.708 15.229L42.7114 15.2674L42.7138 15.3058L42.7162 15.3442L42.7176 15.3826L42.719 15.4214L42.7195 15.4603L42.72 15.4992V24L42.7195 24.121L42.7186 24.2419L42.7166 24.3624L42.7138 24.4829L42.7104 24.6029L42.7061 24.7234L42.7013 24.8429L42.6955 24.9629L42.6893 25.0824L42.6821 25.2014L42.6739 25.3205L42.6653 25.4395L42.6562 25.5581L42.6456 25.6766L42.635 25.7947L42.623 25.9128L42.611 26.0309L42.5976 26.1485L42.5841 26.2656L42.5693 26.3827L42.5544 26.4998L42.5381 26.6165L42.5217 26.7331L42.504 26.8493L42.4862 26.9654L42.467 27.0811L42.4478 27.1968L42.4272 27.312L42.4066 27.4272L42.385 27.5419L42.3624 27.6566L42.3393 27.7709L42.3158 27.8846L42.2914 27.9989L42.2659 28.1122L42.2405 28.2254L42.2136 28.3387L42.1867 28.4515L42.1589 28.5638L42.1301 28.6762L42.1008 28.788L42.071 28.8998L42.0408 29.0112L42.0091 29.1226L41.9774 29.2334L41.9448 29.3438L41.9117 29.4542L41.8776 29.5642L41.843 29.6741L41.808 29.7835L41.772 29.8925L41.7355 30.0014L41.6986 30.1099L41.6607 30.2184L41.6222 30.3259L41.5834 30.4339L41.5435 30.541L41.5032 30.648L41.4624 30.755L41.4207 30.8611L41.3784 30.9672L41.3357 31.0733L41.292 31.1784L41.2478 31.2835L41.2032 31.3886L41.1576 31.4928L41.112 31.597L41.0654 31.7011L41.0179 31.8043L40.9704 31.9075L40.9219 32.0102L40.8729 32.113L40.823 32.2152L40.7731 32.317L40.7222 32.4182L40.6709 32.519L40.6186 32.6198L40.5662 32.7202L40.5129 32.8205L40.4592 32.9198L40.405 33.0192L40.3498 33.1181L40.2946 33.217L40.2384 33.3149L40.1817 33.4128L40.1246 33.5102L40.0666 33.6072L40.008 33.7042L39.9495 33.8002L39.8899 33.8962L39.8299 33.9917L39.769 34.0867L39.708 34.1818L39.6461 34.2758L39.5841 34.3699L39.5213 34.4635L39.4579 34.5566L39.3936 34.6493L39.3293 34.7419L39.2645 34.8336L39.1987 34.9253L39.1325 35.0165L39.0662 35.1072L38.999 35.1974L38.9314 35.2872L38.8632 35.377L38.7946 35.4658L38.725 35.5546L38.6553 35.6429L38.5853 35.7307L38.5142 35.8181L38.4432 35.905L38.3712 35.9914L38.2987 36.0773L38.2262 36.1627L38.1528 36.2482L38.0789 36.3326L38.0045 36.4171L37.9296 36.5006L37.8542 36.5842L37.7789 36.6672L37.7026 36.7493L37.6258 36.8314L37.5485 36.913L37.4707 36.9941L37.3925 37.0747L37.3138 37.1549L37.2346 37.2346L37.1549 37.3138L37.0747 37.3925L36.9941 37.4707L36.9129 37.5485L36.8314 37.6258L36.7493 37.7026L36.6672 37.7789L36.5841 37.8542L36.5007 37.9296L36.4171 38.0045L36.3326 38.0789L36.2482 38.1528L36.1627 38.2262L36.0773 38.2987L35.9914 38.3712L35.905 38.4432L35.8181 38.5142L35.7307 38.5853L35.6429 38.6554L35.5546 38.725L35.4658 38.7946L35.377 38.8632L35.2872 38.9314L35.1974 38.999L35.1072 39.0662L35.0165 39.1325L34.9253 39.1987L34.8336 39.2645L34.7419 39.3293L34.6493 39.3936L34.5566 39.4579L34.4635 39.5213L34.3699 39.5842L34.2758 39.6461L34.1817 39.708L34.0867 39.769L33.9917 39.8299L33.8962 39.8899L33.8002 39.9494L33.7041 40.008L33.6072 40.0666L33.5102 40.1246L33.4128 40.1818L33.3149 40.2384L33.217 40.2946L33.1181 40.3498L33.0192 40.405L32.9198 40.4592L32.8205 40.513L32.7202 40.5662L32.6198 40.6186L32.519 40.6709L32.4183 40.7222L32.317 40.7731L32.2152 40.823L32.1129 40.873L32.0102 40.9219L31.9075 40.9704L31.8043 41.0179L31.7011 41.0654L31.597 41.112L31.4928 41.1576L31.3886 41.2032L31.2835 41.2478L31.1784 41.292L31.0733 41.3357L30.9672 41.3784L30.8611 41.4206L30.755 41.4624L30.648 41.5032L30.541 41.5435L30.4339 41.5834L30.3259 41.6222L30.2184 41.6606L30.1099 41.6986L30.0014 41.7355L29.8925 41.772L29.7835 41.808L29.6741 41.843L29.5642 41.8776L29.4542 41.9117L29.3438 41.9448L29.2334 41.9774L29.1226 42.0091L29.0112 42.0408L28.8998 42.071L28.788 42.1008L28.6762 42.1301L28.5638 42.1589L28.4515 42.1867L28.3387 42.2136L28.2254 42.2405L28.1122 42.2659L27.9989 42.2914L27.8846 42.3158L27.7709 42.3394L27.6566 42.3624L27.5419 42.385L27.4272 42.4066L27.312 42.4272L27.1968 42.4478L27.0811 42.467L26.9654 42.4862L26.8493 42.504L26.7331 42.5218L26.6165 42.5381L26.4998 42.5544L26.3827 42.5693L26.2656 42.5842L26.1485 42.5976L26.0309 42.611L25.9128 42.623L25.7947 42.635L25.6766 42.6456L25.5581 42.6562L25.4395 42.6653L25.3205 42.6739L25.2014 42.6821L25.0824 42.6893L24.9629 42.6955L24.8429 42.7013L24.7234 42.7061L24.6029 42.7104L24.4829 42.7138L24.3624 42.7166L24.2419 42.7186L24.121 42.7195L24 42.72L23.879 42.7195L23.7581 42.7186L23.6376 42.7166L23.5171 42.7138L23.3971 42.7104L23.2766 42.7061L23.1571 42.7013L23.0371 42.6955L22.9176 42.6893L22.7986 42.6821L22.6795 42.6739L22.5605 42.6653L22.4419 42.6562L22.3234 42.6456L22.2053 42.635L22.0872 42.623L21.9691 42.611L21.8515 42.5976L21.7344 42.5842L21.6173 42.5693L21.5002 42.5544L21.3835 42.5381L21.2669 42.5218L21.1507 42.504L21.0346 42.4862L20.9189 42.467L20.8032 42.4478L20.688 42.4272L20.5728 42.4066L20.4581 42.385L20.3434 42.3624L20.2291 42.3394L20.1154 42.3158L20.0011 42.2914L19.8878 42.2659L19.7746 42.2405L19.6613 42.2136L19.5485 42.1867L19.4362 42.1589L19.3238 42.1301L19.212 42.1008L19.1002 42.071L18.9888 42.0408L18.8774 42.0091L18.7666 41.9774L18.6562 41.9448L18.5458 41.9117L18.4358 41.8776L18.3259 41.843L18.2165 41.808L18.1075 41.772L17.9986 41.7355L17.8901 41.6986L17.7816 41.6606L17.6741 41.6222L17.5661 41.5834L17.459 41.5435L17.352 41.5032L17.245 41.4624L17.1389 41.4206L17.0328 41.3784L16.9267 41.3357L16.8216 41.292L16.7165 41.2478L16.6114 41.2032L16.5072 41.1576L16.403 41.112L16.2989 41.0654L16.1957 41.0179L16.0925 40.9704L15.9898 40.9219L15.887 40.873L15.7848 40.823L15.683 40.7731L15.5818 40.7222L15.481 40.6709L15.3802 40.6186L15.2798 40.5662L15.1795 40.513L15.0802 40.4592L14.9808 40.405L14.8819 40.3498L14.783 40.2946L14.6851 40.2384L14.5872 40.1818L14.4898 40.1246L14.3928 40.0666L14.2958 40.008L14.1998 39.9494L14.1038 39.8899L14.0083 39.8299L13.9133 39.769L13.8182 39.708L13.7242 39.6461L13.6301 39.5842L13.5365 39.5213L13.4434 39.4579L13.3507 39.3936L13.2581 39.3293L13.1664 39.2645L13.0747 39.1987L12.9835 39.1325L12.8928 39.0662L12.8026 38.999L12.7128 38.9314L12.623 38.8632L12.5342 38.7946L12.4454 38.725L12.3571 38.6554L12.2693 38.5853L12.1819 38.5142L12.095 38.4432L12.0086 38.3712L11.9227 38.2987L11.8373 38.2262L11.7518 38.1528L11.6674 38.0789L11.5829 38.0045L11.4994 37.9296L11.4158 37.8542L11.3328 37.7789L11.2507 37.7026L11.1686 37.6258L11.087 37.5485L11.0059 37.4707L10.9253 37.3925L10.8451 37.3138L10.7654 37.2346L10.6862 37.1549L10.6075 37.0747L10.5293 36.9941L10.4515 36.913L10.3742 36.8314L10.2974 36.7493L10.2211 36.6672L10.1458 36.5842L10.0704 36.5006L9.99552 36.4171L9.92112 36.3326L9.84721 36.2482L9.77376 36.1627L9.70128 36.0773L9.6288 35.9914L9.5568 35.905L9.48576 35.8181L9.41473 35.7307L9.34463 35.6429L9.27504 35.5546L9.20544 35.4658L9.1368 35.377L9.06864 35.2872L9.00097 35.1974L8.93376 35.1072L8.86752 35.0165L8.80128 34.9253L8.73552 34.8336L8.67072 34.7419L8.6064 34.6493L8.54207 34.5566L8.47872 34.4635L8.41583 34.3699L8.35391 34.2758L8.292 34.1818L8.23104 34.0867L8.17008 33.9917L8.11008 33.8962L8.05056 33.8002L7.992 33.7042L7.93345 33.6072L7.87537 33.5102L7.81824 33.4128L7.76161 33.3149L7.70544 33.217L7.65023 33.1181L7.59504 33.0192L7.54079 32.9198L7.48703 32.8205L7.43376 32.7202L7.38143 32.6198L7.32912 32.519L7.27775 32.4182L7.22688 32.317L7.17696 32.2152L7.12703 32.113L7.07808 32.0102L7.02959 31.9075L6.98207 31.8043L6.93455 31.7011L6.888 31.597L6.8424 31.4928L6.7968 31.3886L6.75215 31.2835L6.708 31.1784L6.66432 31.0733L6.62161 30.9672L6.57936 30.8611L6.5376 30.755L6.4968 30.648L6.45647 30.541L6.41664 30.4339L6.37775 30.3259L6.33936 30.2184L6.30143 30.1099L6.26448 30.0014L6.228 29.8925L6.192 29.7835L6.15696 29.6741L6.1224 29.5642L6.08831 29.4542L6.05519 29.3438L6.02256 29.2334L5.99087 29.1226L5.9592 29.0112L5.92895 28.8998L5.8992 28.788L5.86992 28.6762L5.84112 28.5638L5.81328 28.4515L5.7864 28.3387L5.75952 28.2254L5.73409 28.1122L5.70864 27.9989L5.68416 27.8846L5.66064 27.7709L5.6376 27.6566L5.61504 27.5419L5.59345 27.4272L5.57279 27.312L5.55215 27.1968L5.53296 27.0811L5.51376 26.9654L5.496 26.8493L5.47824 26.7331L5.46192 26.6165L5.4456 26.4998L5.43072 26.3827L5.41583 26.2656L5.4024 26.1485L5.38895 26.0309L5.37696 25.9128L5.36496 25.7947L5.3544 25.6766L5.34384 25.5581L5.33473 25.4395L5.32608 25.3205L5.31792 25.2014L5.31072 25.0824L5.30448 24.9629L5.29872 24.8429L5.29391 24.7234L5.28959 24.6029L5.28624 24.4829L5.28335 24.3624L5.28143 24.2419L5.28048 24.121L5.28 24V15.4992L5.28048 15.4603L5.28097 15.4214L5.2824 15.3826L5.28384 15.3442L5.28624 15.3058L5.28864 15.2674L5.292 15.229L5.29583 15.191L5.29967 15.1526L5.30448 15.1152L5.30928 15.0773L5.31504 15.0398L5.32079 15.0024L5.32703 14.965L5.33424 14.928L5.34143 14.891L5.34912 14.8546L5.35728 14.8176L5.36591 14.7816L5.37504 14.7451L5.38463 14.7091L5.39473 14.6731L5.4048 14.6376L5.41583 14.6021L5.42688 14.5666L5.43888 14.5315L5.45087 14.4965L5.46335 14.4614L5.47632 14.4269L5.48976 14.3928L5.5032 14.3587L5.5176 14.3246L5.532 14.291L5.54688 14.2574L5.56224 14.2238L5.57808 14.1907L5.59391 14.1581L5.61072 14.1254L5.62752 14.0928L5.6448 14.0606L5.66207 14.0285L5.68033 13.9968L5.69856 13.9656L5.71728 13.9344L5.73647 13.9032L5.75616 13.8725L5.77583 13.8418L5.796 13.8115L5.81664 13.7818L5.83728 13.752L5.85839 13.7227L5.88 13.6934L5.90207 13.6642L5.92416 13.6358L5.94672 13.6075L5.96976 13.5792L5.99328 13.5514L6.0168 13.524L6.04033 13.4966L6.0648 13.4698L6.08928 13.4429L6.11424 13.4165L6.1392 13.3906L6.16463 13.3646L6.19056 13.3392L6.21647 13.3142L6.24288 13.2893L6.26976 13.2648L6.29664 13.2408L6.32399 13.2168L6.35136 13.1933L6.3792 13.1698L6.40752 13.1467L6.43583 13.1242L6.46416 13.1021L6.49345 13.08L6.52271 13.0584L6.552 13.0373L6.58176 13.0166L6.61151 12.996L6.64176 12.9758L6.67248 12.9562L6.7032 12.9365L6.7344 12.9173L6.7656 12.8986L6.7968 12.8803L6.82849 12.8621L6.86064 12.8448L6.89279 12.8275L6.92544 12.8107L6.95808 12.7939L6.99072 12.7781L7.02384 12.7622L7.05744 12.7469L7.09056 12.732L7.12463 12.7176L7.15872 12.7032L7.19279 12.6898L7.22688 12.6763L7.26143 12.6634L7.29647 12.6509L7.33151 12.6389L7.36655 12.6269L7.40207 12.6158L7.4376 12.6048L7.47312 12.5947L7.50912 12.5846L7.54512 12.575L7.58161 12.5659L7.6176 12.5573L7.65455 12.5491L7.69104 12.5414L7.728 12.5342L7.76496 12.527L7.8024 12.5208L7.83984 12.515L7.87728 12.5093L7.91519 12.5045L7.95264 12.4997L7.99104 12.4958L8.02895 12.492L8.06736 12.4886L8.10576 12.4862L8.14416 12.4838L8.18256 12.4824L8.22143 12.481L8.26033 12.4805L8.2992 12.48H21.6V7.2V7.1688L21.601 7.13808L21.6019 7.10736L21.6034 7.07664L21.6048 7.04592L21.6072 7.01568L21.6096 6.98496L21.6125 6.95472L21.6158 6.92448L21.6192 6.89472L21.6235 6.86448L21.6278 6.83472L21.6326 6.80496L21.6374 6.7752L21.6432 6.74592L21.649 6.71664L21.6552 6.68736L21.6614 6.65808L21.6682 6.62928L21.6758 6.60048L21.683 6.57168L21.6912 6.54336L21.6994 6.51504L21.708 6.48672L21.7171 6.4584L21.7262 6.43056L21.7358 6.40272L21.7459 6.37536L21.756 6.34752L21.7666 6.32016L21.7886 6.2664L21.8122 6.21264L21.8366 6.15984L21.8626 6.108L21.8899 6.05664L21.9182 6.00576L21.9475 5.95584L21.9782 5.90688L22.0099 5.8584L22.043 5.81088L22.0771 5.76432L22.1122 5.71872L22.1482 5.6736L22.1856 5.62992L22.224 5.58672L22.2629 5.54448L22.3032 5.5032L22.3445 5.46288L22.3867 5.424L22.4299 5.3856L22.4736 5.34816L22.5187 5.31216L22.5643 5.27712L22.6109 5.24304L22.6584 5.20992L22.7069 5.17824L22.7558 5.14752L22.8058 5.11824L22.8566 5.08992L22.908 5.06256L22.9598 5.03664L23.0126 5.01216L23.0664 4.98864L23.1202 4.96656L23.1475 4.956L23.1754 4.94592L23.2027 4.93584L23.2306 4.92624L23.2584 4.91712L23.2867 4.908L23.315 4.89936L23.3434 4.8912L23.3717 4.88304L23.4005 4.87584L23.4293 4.86816L23.4581 4.86144L23.4874 4.8552L23.5166 4.84896L23.5459 4.8432L23.5752 4.83744L23.605 4.83264L23.6347 4.82784L23.6645 4.82352L23.6947 4.8192L23.7245 4.81584L23.7547 4.81248L23.785 4.8096L23.8157 4.8072L23.8459 4.8048L23.8766 4.80336L23.9074 4.80192L23.9381 4.80096L23.9688 4.8H24H24.0312ZM23.9851 6.0888L23.9707 6.08928L23.9563 6.08976L23.9419 6.09024L23.9275 6.0912L23.9136 6.09216L23.8992 6.0936L23.8853 6.09456L23.8714 6.096L23.8574 6.09792L23.8435 6.09984L23.8296 6.10176L23.8157 6.10416L23.8022 6.10608L23.7888 6.10896L23.7754 6.11136L23.7619 6.11424L23.7485 6.11712L23.735 6.12048L23.7221 6.12384L23.7086 6.1272L23.6957 6.13104L23.6827 6.13488L23.6698 6.13872L23.6568 6.14256L23.6438 6.14688L23.6314 6.1512L23.6189 6.156L23.6059 6.1608L23.5973 6.16416L23.5685 6.17568L23.544 6.18672L23.5195 6.19776L23.4955 6.20976L23.472 6.22224L23.4485 6.23568L23.4254 6.24912L23.4029 6.26352L23.3803 6.27792L23.3582 6.29328L23.3366 6.30912L23.315 6.32544L23.2944 6.34224L23.2738 6.36L23.2536 6.37776L23.2339 6.396L23.2147 6.41472L23.196 6.43392L23.1778 6.4536L23.16 6.47376L23.1422 6.4944L23.1254 6.51504L23.1091 6.53664L23.0933 6.55824L23.0779 6.58032L23.063 6.60288L23.0491 6.62544L23.0357 6.64848L23.0222 6.672L23.0098 6.69552L22.9978 6.71952L22.9867 6.744L22.9757 6.76848L22.9642 6.79728L22.9608 6.80592L22.956 6.81888L22.9512 6.83136L22.9469 6.84432L22.9426 6.8568L22.9387 6.86976L22.9349 6.88272L22.931 6.89568L22.9272 6.90864L22.9238 6.92208L22.9205 6.93504L22.9171 6.94848L22.9142 6.96144L22.9114 6.97536L22.909 6.9888L22.9061 7.00224L22.9042 7.01568L22.9018 7.0296L22.8998 7.04352L22.8979 7.05744L22.896 7.07088L22.8946 7.08528L22.8931 7.0992L22.8922 7.1136L22.8912 7.12752L22.8902 7.14192L22.8898 7.15632L22.8893 7.17072L22.8888 7.18512V7.20432V12.48L22.8816 12.6149L22.8605 12.7478L22.8259 12.8784L22.7774 13.0042L22.716 13.1246L22.6426 13.2374L22.5576 13.3426L22.4626 13.4376L22.3574 13.5226L22.2446 13.596L22.1242 13.6574L21.9984 13.7059L21.8678 13.741L21.7349 13.7616L21.6 13.7688H8.30352L8.27664 13.7693H8.25409L8.232 13.7702L8.20944 13.7712L8.18736 13.7726L8.16527 13.7741L8.1432 13.776L8.12112 13.7779L8.09952 13.7803L8.07792 13.7827L8.05632 13.7856L8.03473 13.789L8.01312 13.7923L7.992 13.7962L7.97087 13.8L7.94976 13.8043L7.92912 13.8086L7.908 13.8134L7.88736 13.8182L7.86672 13.8235L7.84608 13.8288L7.82544 13.8346L7.80527 13.8403L7.78512 13.8466L7.76496 13.8528L7.7448 13.8595L7.72512 13.8662L7.70496 13.8734L7.68527 13.8811L7.66608 13.8883L7.6464 13.8965L7.62672 13.9046L7.60752 13.9128L7.5888 13.9214L7.56959 13.9301L7.5504 13.9392L7.53168 13.9483L7.51296 13.9574L7.49473 13.967L7.476 13.9771L7.45775 13.9872L7.43952 13.9978L7.42176 14.0078L7.40399 14.0189L7.38576 14.0299L7.368 14.041L7.35072 14.0525L7.33345 14.064L7.31616 14.0755L7.29936 14.0875L7.28207 14.1L7.26527 14.112L7.24849 14.125L7.23215 14.1379L7.21583 14.1509L7.19952 14.1638L7.18368 14.1773L7.16785 14.1907L7.152 14.2046L7.13664 14.2186L7.12128 14.2325L7.10591 14.2469L7.09104 14.2613L7.07616 14.2762L7.06128 14.291L7.04688 14.3059L7.03296 14.3213L7.01856 14.3366L7.00463 14.352L6.99072 14.3678L6.97728 14.3837L6.96384 14.3995L6.95087 14.4158L6.93744 14.4322L6.92496 14.449L6.912 14.4653L6.9 14.4821L6.88752 14.4994L6.87552 14.5162L6.86399 14.5334L6.85248 14.5507L6.84097 14.568L6.82992 14.5858L6.81888 14.604L6.80785 14.6218L6.79728 14.64L6.78721 14.6582L6.77711 14.676L6.76752 14.6942L6.75744 14.713L6.74831 14.7317L6.73872 14.7504L6.73008 14.7696L6.72097 14.7888L6.71279 14.8075L6.70416 14.8267L6.69647 14.8464L6.68831 14.8656L6.68064 14.8858L6.67345 14.905L6.66672 14.9246L6.65952 14.9448L6.65279 14.965L6.64655 14.9851L6.64033 15.0053L6.63455 15.0254L6.6288 15.0461L6.62304 15.0667L6.61824 15.0874L6.61296 15.108L6.60864 15.1286L6.60384 15.1498L6.6 15.1709L6.59616 15.192L6.59232 15.2131L6.58895 15.2347L6.5856 15.2563L6.58271 15.2774L6.58033 15.299L6.57792 15.3216L6.576 15.3432L6.57409 15.3653L6.57264 15.3869L6.5712 15.4094L6.57023 15.432L6.56928 15.4541V15.4766L6.5688 15.5035V23.9981L6.56928 24.1128L6.57023 24.2256L6.57215 24.3379L6.57455 24.4502L6.57792 24.5621L6.58176 24.6739L6.58608 24.7858L6.59184 24.8976L6.5976 25.0085L6.60432 25.1198L6.61151 25.2307L6.61967 25.3416L6.6288 25.452L6.63792 25.5624L6.648 25.6728L6.65903 25.7822L6.67056 25.8922L6.68256 26.0016L6.69552 26.111L6.70895 26.22L6.72335 26.329L6.73824 26.4374L6.7536 26.5464L6.76992 26.6544L6.78672 26.7624L6.80448 26.8704L6.82271 26.9779L6.84143 27.085L6.86064 27.192L6.88128 27.299L6.90192 27.4056L6.92304 27.5122L6.9456 27.6182L6.96816 27.7243L6.99168 27.8299L7.01568 27.9355L7.04015 28.0406L7.0656 28.1458L7.09151 28.2504L7.11792 28.3546L7.14527 28.4587L7.17312 28.5629L7.20143 28.6666L7.23023 28.7698L7.26 28.873L7.29023 28.9762L7.32143 29.0789L7.35264 29.1811L7.3848 29.2834L7.41792 29.3851L7.45104 29.4864L7.48512 29.5882L7.51967 29.689L7.55473 29.7898L7.59072 29.8901L7.62672 29.9904L7.66368 30.0902L7.70161 30.1901L7.73952 30.289L7.77839 30.3883L7.81775 30.4867L7.8576 30.5851L7.89792 30.6835L7.9392 30.7814L7.98048 30.8789L8.02271 30.9763L8.06544 31.0733L8.10912 31.1698L8.15279 31.2662L8.19744 31.3622L8.24256 31.4578L8.28816 31.5533L8.33424 31.6483L8.38128 31.7429L8.42831 31.8374L8.47632 31.9315L8.5248 32.0251L8.57376 32.1187L8.6232 32.2118L8.67312 32.3045L8.72399 32.3971L8.77488 32.4888L8.82672 32.581L8.87903 32.6722L8.93184 32.7634L8.98512 32.8541L9.03888 32.9443L9.09312 33.0346L9.14785 33.1243L9.20352 33.2136L9.2592 33.3024L9.31583 33.3912L9.37296 33.479L9.43008 33.5674L9.48816 33.6547L9.54672 33.7416L9.60576 33.8285L9.66527 33.9149L9.72527 34.0008L9.78576 34.0867L9.84721 34.1722L9.90864 34.2566L9.97056 34.3411L10.033 34.4256L10.0963 34.5091L10.1597 34.5926L10.2235 34.6757L10.2883 34.7582L10.3531 34.8403L10.4184 34.9219L10.4846 35.0035L10.5509 35.0842L10.6181 35.1648L10.6853 35.245L10.753 35.3246L10.8216 35.4043L10.8902 35.483L10.9594 35.5613L11.029 35.6395L11.0995 35.7173L11.1701 35.7946L11.2411 35.8714L11.3126 35.9477L11.3846 36.0235L11.4571 36.0989L11.5296 36.1742L11.603 36.2486L11.677 36.323L11.7514 36.397L11.8258 36.4704L11.9011 36.5429L11.9765 36.6154L12.0523 36.6874L12.1286 36.7589L12.2054 36.8299L12.2827 36.9005L12.3605 36.971L12.4387 37.0406L12.517 37.1098L12.5962 37.1784L12.6754 37.247L12.755 37.3147L12.8352 37.3819L12.9158 37.4491L12.9965 37.5154L13.0781 37.5811L13.1597 37.6469L13.2418 37.7117L13.3243 37.7765L13.4074 37.8403L13.4909 37.9037L13.5744 37.967L13.6589 38.0294L13.7434 38.0914L13.8278 38.1528L13.9133 38.2142L13.9992 38.2747L14.0851 38.3347L14.1715 38.3942L14.2584 38.4533L14.3453 38.5118L14.4331 38.5699L14.521 38.627L14.6088 38.6842L14.6976 38.7408L14.7864 38.7965L14.8757 38.8522L14.9654 38.9069L15.0557 38.9611L15.1459 39.0149L15.2366 39.0682L15.3278 39.121L15.419 39.1733L15.5112 39.2251L15.6029 39.276L15.6955 39.3269L15.7882 39.3768L15.8813 39.4262L15.9749 39.4752L16.0685 39.5237L16.1626 39.5717L16.2571 39.6187L16.3517 39.6658L16.4467 39.7118L16.5422 39.7574L16.6378 39.8026L16.7338 39.8472L16.8302 39.8909L16.9267 39.9346L17.0237 39.9773L17.1211 40.0195L17.2186 40.0608L17.3165 40.1021L17.4144 40.1424L17.5133 40.1822L17.6117 40.2216L17.711 40.2605L17.8104 40.2984L17.9098 40.3363L18.0096 40.3733L18.1099 40.4093L18.2102 40.4453L18.311 40.4803L18.4118 40.5149L18.5136 40.549L18.6149 40.5821L18.7166 40.6152L18.8189 40.6474L18.9211 40.6786L19.0238 40.7098L19.127 40.74L19.2302 40.7698L19.3334 40.7986L19.4371 40.8269L19.5413 40.8547L19.6454 40.8821L19.7496 40.9085L19.8547 40.9344L19.9594 40.9598L20.0645 40.9843L20.1701 41.0083L20.2757 41.0318L20.3818 41.0544L20.4878 41.0765L20.5944 41.0981L20.701 41.1192L20.808 41.1394L20.915 41.1586L21.0221 41.1773L21.1296 41.1955L21.2376 41.2133L21.3456 41.2301L21.4541 41.2464L21.5626 41.2618L21.671 41.2766L21.78 41.291L21.889 41.3045L21.9984 41.3174L22.1078 41.3294L22.2173 41.341L22.3277 41.352L22.4376 41.3621L22.548 41.3712L22.6584 41.3803L22.7693 41.3885L22.8802 41.3957L22.9915 41.4024L23.1024 41.4082L23.2142 41.4139L23.3261 41.4182L23.4379 41.4221L23.5498 41.4254L23.6621 41.4278L23.7744 41.4298L23.8872 41.4307L24 41.4312L24.1128 41.4307L24.2256 41.4298L24.3379 41.4278L24.4502 41.4254L24.5621 41.4221L24.6739 41.4182L24.7858 41.4139L24.8976 41.4082L25.0085 41.4024L25.1198 41.3957L25.2307 41.3885L25.3416 41.3803L25.452 41.3712L25.5624 41.3621L25.6723 41.352L25.7827 41.341L25.8922 41.3294L26.0016 41.3174L26.111 41.3045L26.22 41.291L26.329 41.2766L26.4374 41.2618L26.5459 41.2464L26.6544 41.2301L26.7624 41.2133L26.8704 41.1955L26.9779 41.1773L27.085 41.1586L27.192 41.1394L27.299 41.1192L27.4056 41.0981L27.5122 41.0765L27.6182 41.0544L27.7243 41.0318L27.8299 41.0083L27.9355 40.9843L28.0406 40.9598L28.1453 40.9344L28.2504 40.9085L28.3546 40.8821L28.4587 40.8547L28.5629 40.8269L28.6666 40.7986L28.7698 40.7698L28.873 40.74L28.9762 40.7098L29.0789 40.6786L29.1811 40.6474L29.2834 40.6152L29.3851 40.5821L29.4864 40.549L29.5877 40.5149L29.689 40.4803L29.7898 40.4453L29.8901 40.4093L29.9904 40.3733L30.0902 40.3363L30.1896 40.2984L30.289 40.2605L30.3883 40.2216L30.4867 40.1822L30.5856 40.1424L30.6835 40.1021L30.7814 40.0608L30.8789 40.0195L30.9763 39.9773L31.0733 39.9341L31.1698 39.8909L31.2662 39.8472L31.3622 39.8026L31.4578 39.7574L31.5533 39.7118L31.6483 39.6658L31.7429 39.6187L31.8374 39.5717L31.9315 39.5237L32.0251 39.4752L32.1187 39.4262L32.2118 39.3768L32.3045 39.3269L32.3971 39.276L32.4893 39.2251L32.581 39.1733L32.6722 39.121L32.7634 39.0682L32.8541 39.0149L32.9443 38.9611L33.0346 38.9069L33.1238 38.8522L33.2136 38.7965L33.3024 38.7408L33.3912 38.6842L33.479 38.627L33.5669 38.5699L33.6547 38.5118L33.7416 38.4533L33.8285 38.3942L33.9149 38.3347L34.0008 38.2747L34.0867 38.2142L34.1722 38.1528L34.2566 38.0914L34.3416 38.0294L34.4256 37.967L34.5091 37.9037L34.5926 37.8403L34.6757 37.7765L34.7582 37.7117L34.8403 37.6469L34.9219 37.5811L35.0035 37.5154L35.0841 37.4491L35.1648 37.3819L35.245 37.3147L35.3246 37.247L35.4043 37.1784L35.483 37.1098L35.5613 37.0406L35.6395 36.971L35.7173 36.9005L35.7946 36.8299L35.8714 36.7589L35.9477 36.6874L36.0235 36.6154L36.0993 36.5429L36.1742 36.4704L36.2486 36.397L36.323 36.323L36.397 36.2486L36.4699 36.1742L36.5429 36.0989L36.6153 36.0235L36.6874 35.9477L36.7589 35.8714L36.8299 35.7946L36.9005 35.7173L36.971 35.6395L37.0407 35.5613L37.1098 35.483L37.1784 35.4043L37.247 35.3246L37.3147 35.245L37.3819 35.1648L37.4491 35.0842L37.5154 35.0035L37.5816 34.9219L37.6469 34.8403L37.7117 34.7582L37.7765 34.6757L37.8403 34.5926L37.9037 34.5091L37.967 34.4256L38.0294 34.3411L38.0914 34.2566L38.1528 34.1722L38.2142 34.0867L38.2747 34.0008L38.3347 33.9149L38.3942 33.8285L38.4533 33.7416L38.5118 33.6547L38.5699 33.5669L38.627 33.479L38.6841 33.3912L38.7408 33.3024L38.7965 33.2136L38.8522 33.1243L38.9069 33.0346L38.9611 32.9443L39.0149 32.8541L39.0682 32.7634L39.121 32.6722L39.1733 32.581L39.2251 32.4893L39.276 32.3971L39.3269 32.3045L39.3768 32.2118L39.4262 32.1187L39.4752 32.0251L39.5237 31.9315L39.5717 31.8374L39.6187 31.7429L39.6658 31.6483L39.7118 31.5533L39.7574 31.4578L39.8026 31.3622L39.8467 31.2662L39.8909 31.1698L39.9346 31.0728L39.9773 30.9763L40.0195 30.8789L40.0608 30.7814L40.1021 30.6835L40.1424 30.5851L40.1822 30.4867L40.2216 30.3883L40.2605 30.289L40.2989 30.1896L40.3363 30.0902L40.3733 29.9904L40.4093 29.8901L40.4453 29.7898L40.4803 29.689L40.5149 29.5882L40.549 29.4864L40.5821 29.3851L40.6152 29.2834L40.6474 29.1811L40.6786 29.0789L40.7098 28.9762L40.74 28.873L40.7698 28.7698L40.7986 28.6666L40.8269 28.5629L40.8547 28.4587L40.8821 28.3546L40.9085 28.2499L40.9344 28.1458L40.9598 28.0406L40.9843 27.935L41.0083 27.8299L41.0318 27.7243L41.0544 27.6182L41.0765 27.5122L41.0981 27.4056L41.1192 27.299L41.1389 27.192L41.1586 27.085L41.1773 26.9779L41.1955 26.8704L41.2133 26.7624L41.2301 26.6544L41.2464 26.5464L41.2617 26.4374L41.2766 26.329L41.291 26.22L41.3045 26.111L41.3174 26.0016L41.3295 25.8922L41.341 25.7827L41.352 25.6728L41.3621 25.5624L41.3712 25.452L41.3803 25.3416L41.3885 25.2307L41.3957 25.1198L41.4024 25.0085L41.4082 24.8971L41.4139 24.7858L41.4183 24.6744L41.4221 24.5621L41.4254 24.4502L41.4278 24.3379L41.4298 24.2251L41.4307 24.1128L41.4312 23.9981V15.504L41.4307 15.4771V15.4541L41.4298 15.4315L41.4288 15.4094L41.4274 15.3874L41.4259 15.3653L41.424 15.3432L41.4221 15.3216L41.4197 15.2995L41.4173 15.2774L41.4144 15.2563L41.411 15.2347L41.4077 15.2131L41.4038 15.192L41.4 15.1714L41.3962 15.1502L41.3914 15.1286L41.3866 15.108L41.3817 15.0874L41.377 15.0667L41.3712 15.0461L41.3654 15.0254L41.3597 15.0058L41.3534 14.9851L41.3472 14.9645L41.3405 14.9448L41.3338 14.9251L41.3265 14.9054L41.3189 14.8853L41.3117 14.8656L41.304 14.8464L41.2953 14.8267L41.2872 14.8075L41.279 14.7888L41.2699 14.7696L41.2613 14.7504L41.2517 14.7317L41.2426 14.713L41.2329 14.6947L41.2229 14.676L41.2128 14.6582L41.2027 14.64L41.1917 14.6213L41.1811 14.6035L41.1701 14.5858L41.159 14.568L41.1475 14.5507L41.136 14.5334L41.1245 14.5162L41.1125 14.4994L41.1 14.4821L41.088 14.4653L41.075 14.449L41.0621 14.4322L41.0491 14.4158L41.0362 14.3995L41.0227 14.3837L41.0093 14.3678L40.9953 14.352L40.9814 14.3366L40.9675 14.3213L40.9531 14.3059L40.9387 14.291L40.9238 14.2762L40.909 14.2613L40.8941 14.2469L40.8787 14.2325L40.8634 14.2186L40.848 14.2046L40.8322 14.1907L40.8163 14.1773L40.8005 14.1638L40.7841 14.1509L40.7678 14.1374L40.7515 14.125L40.7347 14.112L40.7179 14.1L40.7007 14.0875L40.6838 14.0755L40.6665 14.064L40.6493 14.052L40.632 14.041L40.6142 14.0299L40.596 14.0189L40.5783 14.0078L40.5605 13.9973L40.5422 13.9872L40.524 13.9771L40.5053 13.967L40.487 13.9574L40.4683 13.9483L40.4496 13.9392L40.4304 13.9301L40.4112 13.9214L40.3925 13.9128L40.3733 13.9046L40.3536 13.8965L40.3344 13.8883L40.3147 13.8811L40.295 13.8734L40.2749 13.8662L40.2552 13.8595L40.235 13.8528L40.2149 13.8466L40.1947 13.8403L40.1746 13.8346L40.1539 13.8288L40.1333 13.8235L40.1126 13.8182L40.092 13.8134L40.0714 13.8086L40.0502 13.8043L40.0291 13.8L40.008 13.7962L39.9869 13.7923L39.9653 13.789L39.9437 13.7856L39.9221 13.7827L39.9005 13.7803L39.8789 13.7779L39.8568 13.776L39.8347 13.7741L39.8126 13.7726L39.7905 13.7712L39.7685 13.7702L39.7459 13.7693H39.7234L39.6965 13.7688H26.4L26.2651 13.7616L26.1322 13.741L26.0016 13.7059L25.8758 13.6574L25.7554 13.596L25.6426 13.5226L25.5374 13.4376L25.4424 13.3426L25.3574 13.2374L25.284 13.1246L25.2226 13.0042L25.1741 12.8784L25.139 12.7478L25.1184 12.6149L25.1112 12.48V7.20384V7.18512L25.1107 7.17072L25.1102 7.15632L25.1098 7.14192L25.1088 7.12752L25.1078 7.11312L25.1064 7.0992L25.1054 7.08528L25.104 7.07136L25.1021 7.05744L25.1002 7.04304L25.0982 7.0296L25.0958 7.01568L25.0939 7.00224L25.091 6.9888L25.0886 6.97536L25.0858 6.96192L25.0829 6.94848L25.0795 6.93504L25.0762 6.92208L25.0728 6.90864L25.069 6.89568L25.0651 6.88272L25.0613 6.86976L25.0574 6.8568L25.0531 6.84384L25.0488 6.83136L25.044 6.81888L25.0392 6.80592L25.0358 6.79728L25.0243 6.76848L25.0133 6.744L25.0022 6.71952L24.9902 6.69552L24.9778 6.672L24.9643 6.64848L24.9509 6.62544L24.9365 6.60288L24.9221 6.58032L24.9067 6.55824L24.8909 6.53664L24.8746 6.51504L24.8578 6.4944L24.84 6.47376L24.8222 6.4536L24.804 6.43392L24.7853 6.41472L24.7661 6.396L24.7464 6.37776L24.7262 6.36L24.7056 6.34224L24.685 6.32544L24.6634 6.30912L24.6418 6.29328L24.6197 6.27792L24.5971 6.26352L24.5746 6.24912L24.5515 6.23568L24.528 6.22224L24.5045 6.20976L24.4805 6.19776L24.456 6.18672L24.4315 6.17568L24.4027 6.16416L24.3941 6.1608L24.3816 6.156L24.3686 6.1512L24.3557 6.14688L24.3432 6.14256L24.3302 6.13872L24.3173 6.13488L24.3043 6.13104L24.2914 6.1272L24.2779 6.12384L24.265 6.12048L24.2515 6.11712L24.2381 6.11424L24.2246 6.11136L24.2112 6.10896L24.1978 6.10608L24.1838 6.10416L24.1704 6.10176L24.1565 6.09984L24.1426 6.09792L24.1286 6.096L24.1147 6.09456L24.1008 6.0936L24.0864 6.09216L24.0725 6.0912L24.0581 6.09024L24.0437 6.08976L24.0293 6.08928L24.0149 6.0888H24H23.9851Z" fill="#174E83"/>
</svg>
