<svg xmlns="http://www.w3.org/2000/svg" width="34" height="34" viewBox="0 0 34 34"><g><g><path fill="#bed8e9" d="M34 17c0 9.389-7.611 17-17 17S0 26.389 0 17 7.611 0 17 0s17 7.611 17 17z"/></g><g><path fill="#f0f6fa" d="M24.968 21.622c-.042-.128-.312-.316-.81-.564a24.75 24.75 0 0 0-.575-.32c-.248-.135-.474-.26-.676-.373a22.598 22.598 0 0 1-.57-.33 13.913 13.913 0 0 0-.266-.187 3 3 0 0 0-.379-.229.698.698 0 0 0-.304-.074c-.142 0-.319.101-.532.303a5.192 5.192 0 0 0-.586.661 6.411 6.411 0 0 1-.564.66c-.2.203-.363.304-.49.304a.723.723 0 0 1-.24-.053 2.494 2.494 0 0 1-.219-.09 3.968 3.968 0 0 1-.255-.15 6.52 6.52 0 0 0-.203-.122c-.973-.54-1.807-1.158-2.503-1.854-.696-.696-1.314-1.53-1.854-2.504a6.18 6.18 0 0 0-.123-.202 3.846 3.846 0 0 1-.149-.256 2.31 2.31 0 0 1-.09-.218.72.72 0 0 1-.054-.24c0-.127.102-.29.304-.49.202-.199.423-.387.66-.564.239-.178.459-.373.661-.586.202-.213.304-.39.304-.533 0-.099-.025-.2-.075-.303a2.961 2.961 0 0 0-.229-.379l-.186-.266a23.363 23.363 0 0 1-.33-.57 53.789 53.789 0 0 1-.374-.676c-.135-.249-.241-.44-.32-.575-.248-.497-.436-.767-.564-.81a.597.597 0 0 0-.223-.032 3.51 3.51 0 0 0-.752.107 4.22 4.22 0 0 0-.73.223c-.354.15-.73.583-1.129 1.3-.362.667-.543 1.328-.543 1.981 0 .192.012.378.037.56.025.18.07.385.134.612.063.227.115.396.154.506.039.11.112.307.218.591.107.284.17.458.192.522a9.65 9.65 0 0 0 .884 1.865c.561.909 1.326 1.848 2.296 2.817.97.97 1.909 1.735 2.818 2.296a9.67 9.67 0 0 0 1.864.885c.064.02.238.085.522.191.284.107.482.18.592.219.11.039.278.09.505.154.228.064.432.109.613.134.181.024.368.037.56.037.653 0 1.314-.181 1.981-.543.717-.398 1.15-.774 1.3-1.13.078-.177.152-.42.223-.73.072-.308.107-.559.107-.75 0-.1-.01-.175-.032-.225z"/></g></g></svg>