<svg width="100" height="100" viewBox="0 0 100 100" fill="none" xmlns="http://www.w3.org/2000/svg">
<path d="M50 100C77.6142 100 100 77.6142 100 50C100 22.3858 77.6142 0 50 0C22.3858 0 0 22.3858 0 50C0 77.6142 22.3858 100 50 100Z" fill="#F0F6FA"/>
<path fill-rule="evenodd" clip-rule="evenodd" d="M22.75 24.625C22.75 16.5533 16.1967 10 8.125 10C5.43465 10 3.25 12.1846 3.25 14.875V31.125C3.25 33.8153 5.43465 36 8.125 36H22.75V24.625Z" fill="#BED8E9"/>
<path fill-rule="evenodd" clip-rule="evenodd" d="M7.645 0L7.791 0.002L7.936 0.004L8.08 0.007L8.225 0.011L8.369 0.017L8.513 0.022L8.657 0.029L8.801 0.037L8.944 0.046L9.087 0.055L9.23 0.066L9.373 0.077L9.515 0.089L9.657 0.102L9.799 0.116L9.941 0.131L10.082 0.147L10.223 0.163L10.364 0.181L10.505 0.199L10.645 0.218L10.785 0.239L10.925 0.259L11.064 0.281L11.203 0.304L11.342 0.327L11.481 0.352L11.619 0.377L11.757 0.403L11.895 0.43L12.032 0.457L12.169 0.486L12.306 0.515L12.443 0.546L12.579 0.577L12.715 0.608L12.85 0.641L12.985 0.675L13.12 0.709L13.255 0.744L13.389 0.78L13.523 0.817L13.657 0.854L13.79 0.892L13.923 0.932L14.055 0.972L14.188 1.012L14.32 1.054L14.451 1.096L14.582 1.139L14.713 1.183L14.844 1.228L14.974 1.273L15.104 1.319L15.233 1.366L15.362 1.414L15.491 1.462L15.619 1.512L15.747 1.562L15.874 1.612L16.001 1.664L16.128 1.716L16.255 1.769L16.38 1.823L16.506 1.878L16.631 1.933L16.756 1.989L16.88 2.046L17.004 2.103L17.128 2.161L17.251 2.22L17.374 2.28L17.496 2.34L17.618 2.401L17.739 2.463L17.861 2.526L17.981 2.589L18.101 2.653L18.221 2.717L18.34 2.783L18.459 2.849L18.578 2.915L18.696 2.983L18.813 3.051L18.931 3.12L19.047 3.189L19.163 3.259L19.279 3.33L19.394 3.402L19.509 3.474L19.624 3.547L19.737 3.62L19.851 3.694L19.964 3.769L20.076 3.845L20.188 3.921L20.3 3.998L20.411 4.075L20.521 4.153L20.631 4.232L20.741 4.312L20.85 4.392L20.959 4.472L21.067 4.554L21.174 4.636L21.281 4.718L21.388 4.802L21.494 4.885L21.599 4.97L21.704 5.055L21.809 5.141L21.913 5.227L22.016 5.314L22.119 5.401L22.221 5.489L22.323 5.578L22.424 5.668L22.525 5.757L22.625 5.848L22.725 5.939L22.824 6.031L22.922 6.123L23.02 6.216L23.118 6.309L23.215 6.403L23.311 6.498L23.407 6.593L23.502 6.689L23.597 6.785L23.691 6.882L23.784 6.98L23.877 7.078L23.969 7.176L24.061 7.275L24.152 7.375L24.243 7.475L24.332 7.576L24.422 7.677L24.511 7.779L24.599 7.881L24.686 7.984L24.773 8.087L24.859 8.191L24.945 8.296L25.03 8.401L25.115 8.506L25.198 8.612L25.282 8.719L25.364 8.826L25.446 8.933L25.528 9.041L25.608 9.15L25.688 9.259L25.768 9.369L25.847 9.479L25.925 9.589L26.002 9.7L26.079 9.812L26.155 9.924L26.231 10.036L26.306 10.149L26.38 10.263L26.453 10.376L26.526 10.491L26.598 10.606L26.67 10.721L26.741 10.837L26.811 10.953L26.88 11.069L26.949 11.187L27.017 11.304L27.085 11.422L27.151 11.541L27.217 11.66L27.283 11.779L27.347 11.899L27.411 12.019L27.474 12.139L27.537 12.261L27.599 12.382L27.66 12.504L27.72 12.626L27.78 12.749L27.839 12.872L27.897 12.996L27.954 13.12L28.011 13.244L28.067 13.369L28.122 13.494L28.177 13.62L28.231 13.745L28.284 13.872L28.336 13.999L28.388 14.126L28.438 14.253L28.488 14.381L28.538 14.509L28.586 14.638L28.634 14.767L28.681 14.896L28.727 15.026L28.772 15.156L28.817 15.287L28.861 15.418L28.904 15.549L28.946 15.68L28.988 15.812L29.028 15.945L29.068 16.077L29.108 16.21L29.146 16.343L29.183 16.477L29.22 16.611L29.256 16.745L29.291 16.88L29.325 17.015L29.359 17.15L29.392 17.285L29.423 17.421L29.454 17.557L29.485 17.694L29.514 17.831L29.543 17.968L29.57 18.105L29.597 18.243L29.623 18.381L29.648 18.519L29.673 18.658L29.696 18.797L29.719 18.936L29.741 19.075L29.761 19.215L29.782 19.355L29.801 19.495L29.819 19.636L29.837 19.777L29.853 19.918L29.869 20.059L29.884 20.201L29.898 20.343L29.911 20.485L29.923 20.627L29.934 20.77L29.945 20.913L29.954 21.056L29.963 21.199L29.971 21.343L29.978 21.487L29.983 21.631L29.989 21.775L29.993 21.92L29.996 22.064L29.998 22.209L30 22.355V22.5V40H7.5L7.403 39.999L7.307 39.998L7.21 39.994L7.114 39.99L7.019 39.985L6.923 39.978L6.828 39.97L6.734 39.961L6.639 39.951L6.545 39.94L6.452 39.927L6.358 39.914L6.266 39.899L6.173 39.883L6.081 39.866L5.989 39.848L5.898 39.828L5.807 39.808L5.717 39.786L5.627 39.764L5.537 39.74L5.448 39.715L5.359 39.689L5.271 39.663L5.183 39.635L5.096 39.606L5.009 39.576L4.922 39.545L4.836 39.513L4.751 39.479L4.666 39.445L4.582 39.41L4.498 39.374L4.415 39.337L4.332 39.299L4.25 39.26L4.168 39.22L4.087 39.179L4.006 39.137L3.926 39.094L3.847 39.05L3.768 39.006L3.69 38.96L3.612 38.914L3.535 38.866L3.459 38.818L3.383 38.769L3.308 38.718L3.233 38.667L3.16 38.616L3.086 38.563L3.014 38.509L2.942 38.455L2.871 38.399L2.8 38.343L2.73 38.286L2.661 38.229L2.593 38.17L2.525 38.111L2.458 38.051L2.392 37.99L2.327 37.928L2.262 37.866L2.198 37.802L2.134 37.738L2.072 37.673L2.01 37.608L1.949 37.542L1.889 37.475L1.83 37.407L1.771 37.339L1.714 37.27L1.657 37.2L1.601 37.129L1.545 37.058L1.491 36.986L1.437 36.914L1.384 36.84L1.333 36.767L1.282 36.692L1.231 36.617L1.182 36.541L1.134 36.465L1.086 36.388L1.04 36.31L0.994 36.232L0.95 36.153L0.906 36.074L0.863 35.994L0.821 35.913L0.78 35.832L0.74 35.75L0.701 35.668L0.663 35.585L0.626 35.502L0.59 35.418L0.555 35.334L0.521 35.249L0.487 35.164L0.455 35.078L0.424 34.991L0.394 34.904L0.365 34.817L0.337 34.729L0.311 34.641L0.285 34.552L0.26 34.463L0.236 34.373L0.214 34.283L0.192 34.193L0.172 34.102L0.152 34.011L0.134 33.919L0.117 33.827L0.101 33.734L0.086 33.642L0.073 33.548L0.06 33.455L0.049 33.361L0.039 33.266L0.03 33.172L0.022 33.077L0.015 32.981L0.01 32.886L0.006 32.79L0.002 32.693L0.001 32.597L0 32.5V7.5L0.001 7.403L0.002 7.307L0.006 7.21L0.01 7.114L0.015 7.019L0.022 6.923L0.03 6.828L0.039 6.734L0.049 6.639L0.06 6.545L0.073 6.452L0.086 6.358L0.101 6.266L0.117 6.173L0.134 6.081L0.152 5.989L0.172 5.898L0.192 5.807L0.214 5.717L0.236 5.627L0.26 5.537L0.285 5.448L0.311 5.359L0.337 5.271L0.365 5.183L0.394 5.096L0.424 5.009L0.455 4.922L0.487 4.836L0.521 4.751L0.555 4.666L0.59 4.582L0.626 4.498L0.663 4.415L0.701 4.332L0.74 4.25L0.78 4.168L0.821 4.087L0.863 4.006L0.906 3.926L0.95 3.847L0.994 3.768L1.04 3.69L1.086 3.612L1.134 3.535L1.182 3.459L1.231 3.383L1.282 3.308L1.333 3.233L1.384 3.16L1.437 3.086L1.491 3.014L1.545 2.942L1.601 2.871L1.657 2.8L1.714 2.73L1.771 2.661L1.83 2.593L1.889 2.525L1.949 2.458L2.01 2.392L2.072 2.327L2.134 2.262L2.198 2.198L2.262 2.134L2.327 2.072L2.392 2.01L2.458 1.949L2.525 1.889L2.593 1.83L2.661 1.771L2.73 1.714L2.8 1.657L2.871 1.601L2.942 1.545L3.014 1.491L3.086 1.437L3.16 1.384L3.233 1.333L3.308 1.282L3.383 1.231L3.459 1.182L3.535 1.134L3.612 1.086L3.69 1.04L3.768 0.994L3.847 0.95L3.926 0.906L4.006 0.863L4.087 0.821L4.168 0.78L4.25 0.74L4.332 0.701L4.415 0.663L4.498 0.626L4.582 0.59L4.666 0.555L4.751 0.521L4.836 0.487L4.922 0.455L5.009 0.424L5.096 0.394L5.183 0.365L5.271 0.337L5.359 0.311L5.448 0.285L5.537 0.26L5.627 0.236L5.717 0.214L5.807 0.192L5.898 0.172L5.989 0.152L6.081 0.134L6.173 0.117L6.266 0.101L6.358 0.086L6.452 0.073L6.545 0.06L6.639 0.049L6.734 0.039L6.828 0.03L6.923 0.022L7.019 0.015L7.114 0.01L7.21 0.006L7.307 0.002L7.403 0.001L7.5 0H7.645V0ZM7.456 4.167L7.412 4.168L7.369 4.169L7.326 4.171L7.283 4.174L7.24 4.177L7.197 4.18L7.155 4.184L7.113 4.189L7.071 4.194L7.03 4.199L6.989 4.205L6.947 4.212L6.907 4.219L6.866 4.226L6.825 4.234L6.785 4.243L6.745 4.252L6.705 4.261L6.666 4.271L6.626 4.282L6.587 4.293L6.548 4.304L6.509 4.316L6.471 4.328L6.432 4.341L6.394 4.354L6.356 4.368L6.318 4.382L6.281 4.396L6.243 4.411L6.206 4.427L6.169 4.443L6.132 4.459L6.096 4.476L6.059 4.493L6.023 4.511L5.987 4.529L5.952 4.548L5.916 4.567L5.881 4.586L5.846 4.606L5.811 4.626L5.777 4.647L5.742 4.668L5.708 4.69L5.675 4.712L5.641 4.734L5.608 4.757L5.575 4.78L5.542 4.803L5.51 4.827L5.478 4.852L5.446 4.876L5.414 4.901L5.383 4.927L5.352 4.953L5.321 4.979L5.291 5.006L5.261 5.033L5.231 5.06L5.202 5.088L5.173 5.116L5.144 5.144L5.116 5.173L5.088 5.202L5.06 5.231L5.033 5.261L5.006 5.291L4.979 5.321L4.953 5.352L4.927 5.383L4.901 5.414L4.876 5.446L4.852 5.478L4.827 5.51L4.803 5.542L4.78 5.575L4.757 5.608L4.734 5.641L4.712 5.675L4.69 5.708L4.668 5.742L4.647 5.777L4.626 5.811L4.606 5.846L4.586 5.881L4.567 5.916L4.548 5.952L4.529 5.987L4.511 6.023L4.493 6.059L4.476 6.096L4.459 6.132L4.443 6.169L4.427 6.206L4.411 6.243L4.396 6.281L4.382 6.318L4.368 6.356L4.354 6.394L4.341 6.432L4.328 6.471L4.316 6.509L4.304 6.548L4.293 6.587L4.282 6.626L4.271 6.666L4.261 6.705L4.252 6.745L4.243 6.785L4.234 6.825L4.226 6.866L4.219 6.907L4.212 6.947L4.205 6.989L4.199 7.03L4.194 7.071L4.189 7.113L4.184 7.155L4.18 7.197L4.177 7.24L4.174 7.283L4.171 7.326L4.169 7.369L4.168 7.412L4.167 7.456V7.513V32.487V32.544L4.168 32.588L4.169 32.631L4.171 32.674L4.174 32.717L4.177 32.76L4.18 32.803L4.184 32.845L4.189 32.887L4.194 32.929L4.199 32.97L4.205 33.011L4.212 33.053L4.219 33.093L4.226 33.134L4.234 33.175L4.243 33.215L4.252 33.255L4.261 33.295L4.271 33.334L4.282 33.374L4.293 33.413L4.304 33.452L4.316 33.491L4.328 33.529L4.341 33.568L4.354 33.606L4.368 33.644L4.382 33.682L4.396 33.719L4.411 33.757L4.427 33.794L4.443 33.831L4.459 33.868L4.476 33.904L4.493 33.941L4.511 33.977L4.529 34.013L4.548 34.048L4.567 34.084L4.586 34.119L4.606 34.154L4.626 34.189L4.647 34.223L4.668 34.258L4.69 34.292L4.712 34.325L4.734 34.359L4.757 34.392L4.78 34.425L4.803 34.458L4.827 34.49L4.852 34.522L4.876 34.554L4.901 34.586L4.927 34.617L4.953 34.648L4.979 34.679L5.006 34.709L5.033 34.739L5.06 34.769L5.088 34.798L5.116 34.827L5.144 34.856L5.173 34.884L5.202 34.912L5.231 34.94L5.261 34.967L5.291 34.994L5.321 35.021L5.352 35.047L5.383 35.073L5.414 35.099L5.446 35.124L5.478 35.148L5.51 35.173L5.542 35.197L5.575 35.22L5.608 35.243L5.641 35.266L5.675 35.288L5.708 35.31L5.742 35.332L5.777 35.353L5.811 35.374L5.846 35.394L5.881 35.414L5.916 35.433L5.952 35.452L5.987 35.471L6.023 35.489L6.059 35.507L6.096 35.524L6.132 35.541L6.169 35.557L6.206 35.573L6.243 35.589L6.281 35.604L6.318 35.618L6.356 35.632L6.394 35.646L6.432 35.659L6.471 35.672L6.509 35.684L6.548 35.696L6.587 35.707L6.626 35.718L6.666 35.729L6.705 35.739L6.745 35.748L6.785 35.757L6.825 35.766L6.866 35.774L6.907 35.781L6.947 35.788L6.988 35.795L7.03 35.801L7.071 35.806L7.113 35.811L7.155 35.816L7.197 35.82L7.24 35.823L7.283 35.826L7.326 35.829L7.369 35.831L7.412 35.832L7.456 35.833H7.513H25.833V22.507V22.381L25.832 22.262L25.83 22.144L25.827 22.025L25.824 21.907L25.82 21.789L25.815 21.672L25.809 21.554L25.803 21.437L25.796 21.32L25.788 21.203L25.78 21.086L25.77 20.97L25.761 20.854L25.75 20.738L25.738 20.622L25.726 20.507L25.714 20.392L25.7 20.277L25.686 20.162L25.671 20.048L25.655 19.933L25.639 19.819L25.622 19.705L25.604 19.592L25.586 19.479L25.566 19.366L25.547 19.253L25.526 19.14L25.505 19.028L25.483 18.916L25.461 18.804L25.437 18.692L25.414 18.581L25.389 18.47L25.364 18.359L25.338 18.249L25.311 18.139L25.284 18.029L25.256 17.919L25.228 17.809L25.198 17.7L25.168 17.591L25.138 17.483L25.107 17.374L25.075 17.266L25.042 17.158L25.009 17.051L24.976 16.944L24.941 16.837L24.906 16.73L24.87 16.623L24.834 16.517L24.797 16.412L24.76 16.306L24.721 16.201L24.683 16.096L24.643 15.991L24.603 15.887L24.562 15.783L24.521 15.679L24.479 15.576L24.437 15.472L24.394 15.37L24.35 15.267L24.305 15.165L24.26 15.063L24.215 14.962L24.169 14.86L24.122 14.759L24.075 14.659L24.027 14.559L23.978 14.459L23.929 14.359L23.879 14.26L23.829 14.161L23.778 14.062L23.727 13.964L23.674 13.866L23.622 13.769L23.569 13.671L23.515 13.575L23.46 13.478L23.406 13.382L23.35 13.286L23.294 13.191L23.237 13.096L23.18 13.001L23.122 12.907L23.064 12.813L23.005 12.719L22.946 12.626L22.886 12.533L22.826 12.441L22.764 12.348L22.703 12.257L22.641 12.165L22.578 12.075L22.515 11.984L22.451 11.894L22.387 11.804L22.322 11.715L22.257 11.626L22.191 11.537L22.125 11.449L22.058 11.361L21.991 11.274L21.923 11.187L21.854 11.101L21.785 11.015L21.716 10.929L21.646 10.844L21.576 10.759L21.505 10.675L21.433 10.591L21.361 10.507L21.289 10.424L21.216 10.341L21.143 10.259L21.069 10.177L20.994 10.096L20.919 10.015L20.844 9.935L20.768 9.855L20.692 9.775L20.615 9.696L20.538 9.618L20.46 9.54L20.382 9.462L20.304 9.385L20.225 9.308L20.145 9.232L20.065 9.156L19.985 9.08L19.904 9.006L19.823 8.931L19.741 8.857L19.659 8.784L19.576 8.711L19.493 8.639L19.409 8.567L19.325 8.495L19.241 8.424L19.156 8.354L19.071 8.284L18.985 8.215L18.899 8.146L18.813 8.077L18.726 8.009L18.639 7.942L18.551 7.875L18.463 7.809L18.374 7.743L18.285 7.678L18.196 7.613L18.106 7.549L18.016 7.485L17.925 7.422L17.835 7.359L17.743 7.297L17.652 7.236L17.559 7.174L17.467 7.114L17.374 7.054L17.281 6.995L17.187 6.936L17.093 6.878L16.999 6.82L16.904 6.763L16.809 6.706L16.714 6.65L16.618 6.594L16.522 6.54L16.425 6.485L16.329 6.431L16.231 6.378L16.134 6.326L16.036 6.273L15.938 6.222L15.839 6.171L15.74 6.121L15.641 6.071L15.541 6.022L15.441 5.973L15.341 5.925L15.241 5.878L15.14 5.831L15.038 5.785L14.937 5.74L14.835 5.695L14.733 5.65L14.63 5.606L14.528 5.563L14.424 5.521L14.321 5.479L14.217 5.438L14.113 5.397L14.009 5.357L13.904 5.317L13.799 5.279L13.694 5.24L13.589 5.203L13.483 5.166L13.377 5.129L13.27 5.094L13.163 5.059L13.056 5.024L12.949 4.991L12.842 4.958L12.734 4.925L12.626 4.893L12.517 4.862L12.409 4.832L12.3 4.802L12.191 4.772L12.081 4.744L11.971 4.716L11.861 4.689L11.751 4.662L11.641 4.636L11.53 4.611L11.419 4.586L11.308 4.563L11.196 4.539L11.084 4.517L10.972 4.495L10.86 4.474L10.747 4.453L10.634 4.434L10.521 4.414L10.408 4.396L10.295 4.378L10.181 4.361L10.067 4.345L9.952 4.329L9.838 4.314L9.723 4.3L9.608 4.286L9.493 4.274L9.378 4.262L9.262 4.25L9.146 4.239L9.03 4.23L8.914 4.22L8.797 4.212L8.68 4.204L8.563 4.197L8.446 4.191L8.328 4.185L8.211 4.18L8.093 4.176L7.975 4.173L7.856 4.17L7.738 4.168L7.619 4.167H7.507H7.456Z" fill="#174E83"/>
<path fill-rule="evenodd" clip-rule="evenodd" d="M21.318 36L47.417 36.003L62.327 36.005L76.513 36.009L82.875 36.012L88.503 36.015L93.213 36.018L96.822 36.022L96.902 36.023L96.981 36.026L97.06 36.031L97.138 36.038L97.216 36.047L97.294 36.059L97.371 36.072L97.448 36.087L97.524 36.104L97.6 36.123L97.675 36.144L97.75 36.167L97.824 36.192L97.897 36.219L97.969 36.247L98.041 36.278L98.112 36.31L98.182 36.344L98.251 36.38L98.319 36.417L98.386 36.457L98.453 36.498L98.518 36.541L98.582 36.585L98.645 36.632L98.707 36.68L98.768 36.729L98.828 36.781L98.886 36.834L98.943 36.888L98.999 36.944L99.054 37.002L99.107 37.061L99.158 37.122L99.207 37.183L99.255 37.246L99.301 37.31L99.346 37.375L99.388 37.44L99.429 37.507L99.468 37.575L99.505 37.644L99.54 37.713L99.574 37.784L99.606 37.855L99.635 37.927L99.663 37.999L99.689 38.073L99.714 38.147L99.736 38.221L99.756 38.297L99.775 38.372L99.791 38.448L99.806 38.525L99.818 38.602L99.829 38.68L99.837 38.758L99.844 38.836L99.849 38.914L99.851 38.993L99.852 39.072L99.85 39.151L99.846 39.23L99.841 39.309L99.807 39.649L99.771 39.989L99.734 40.327L99.694 40.665L99.653 41.001L99.61 41.337L99.566 41.671L99.519 42.004L99.471 42.337L99.42 42.668L99.368 42.997L99.314 43.326L99.259 43.654L99.201 43.98L99.142 44.305L99.08 44.629L99.017 44.951L98.952 45.273L98.885 45.593L98.817 45.912L98.746 46.229L98.673 46.545L98.599 46.86L98.523 47.173L98.445 47.485L98.365 47.796L98.283 48.105L98.199 48.413L98.113 48.719L98.025 49.024L97.936 49.328L97.844 49.63L97.751 49.93L97.656 50.229L97.558 50.526L97.459 50.822L97.358 51.116L97.255 51.408L97.15 51.699L97.043 51.989L96.934 52.276L96.823 52.562L96.71 52.846L96.596 53.129L96.479 53.41L96.36 53.689L96.239 53.966L96.117 54.242L95.992 54.516L95.866 54.788L95.737 55.058L95.606 55.326L95.474 55.593L95.339 55.857L95.202 56.12L95.064 56.381L94.923 56.64L94.78 56.897L94.636 57.152L94.489 57.405L94.34 57.656L94.189 57.905L94.037 58.152L93.882 58.397L93.725 58.64L93.566 58.881L93.405 59.12L93.242 59.356L93.077 59.591L92.909 59.823L92.74 60.054L92.569 60.282L92.395 60.508L92.308 60.62L92.22 60.731L92.131 60.842L92.042 60.953L91.953 61.063L91.863 61.172L91.772 61.281L91.681 61.389L91.589 61.497L91.497 61.604L91.404 61.71L91.311 61.816L91.217 61.922L91.123 62.026L91.028 62.131L90.933 62.234L90.837 62.337L90.741 62.44L90.644 62.541L90.546 62.643L90.448 62.743L90.35 62.843L90.251 62.943L90.151 63.042L90.051 63.14L89.95 63.238L89.849 63.335L89.747 63.431L89.645 63.527L89.542 63.622L89.439 63.717L89.335 63.811L89.231 63.904L89.126 63.997L89.02 64.089L88.914 64.18L88.808 64.271L88.701 64.362L88.593 64.451L88.485 64.54L88.376 64.628L88.267 64.716L88.157 64.803L88.047 64.89L87.936 64.975L87.825 65.06L87.713 65.145L87.6 65.229L87.487 65.312L87.374 65.394L87.26 65.476L87.145 65.558L87.03 65.638L86.914 65.718L86.798 65.797L86.681 65.876L86.564 65.954L86.446 66.031L86.327 66.107L86.208 66.183L86.089 66.258L85.968 66.333L85.848 66.407L85.726 66.48L85.605 66.552L85.482 66.624L85.359 66.695L85.236 66.766L85.112 66.835L84.987 66.904L84.862 66.972L84.737 67.04L84.61 67.107L84.484 67.173L84.356 67.239L84.228 67.303L84.1 67.367L83.971 67.431L83.841 67.493L83.711 67.555L83.581 67.616L83.449 67.677L83.318 67.737L83.185 67.796L83.052 67.854L82.919 67.911L82.785 67.968L82.65 68.024L82.515 68.08L82.379 68.134L82.243 68.188L82.106 68.241L81.969 68.294L81.831 68.345L81.692 68.396L81.553 68.446L81.413 68.496L81.273 68.544L81.132 68.592L80.991 68.639L80.849 68.686L80.706 68.731L80.563 68.776L80.42 68.82L80.275 68.863L80.131 68.906L79.985 68.948L79.839 68.989L79.693 69.029L79.546 69.068L79.382 69.112L79.22 69.157L79.058 69.204L78.897 69.252L78.736 69.302L78.576 69.353L78.417 69.405L78.258 69.458L78.1 69.514L77.943 69.57L77.786 69.628L77.63 69.687L77.475 69.747L77.321 69.809L77.167 69.872L77.014 69.937L76.862 70.003L76.711 70.07L76.56 70.138L76.41 70.208L76.261 70.279L76.112 70.351L75.965 70.425L75.818 70.5L75.672 70.576L75.526 70.653L75.382 70.732L75.238 70.811L75.096 70.893L74.954 70.975L74.812 71.058L74.672 71.143L74.533 71.229L74.394 71.316L74.256 71.404L74.119 71.494L73.983 71.584L73.848 71.676L73.714 71.769L73.58 71.863L73.448 71.958L73.316 72.055L73.186 72.152L73.056 72.251L72.927 72.351L72.799 72.451L72.672 72.553L72.546 72.656L72.421 72.761L72.297 72.866L72.174 72.972L72.052 73.079L71.931 73.188L71.81 73.297L71.691 73.407L71.573 73.519L71.456 73.631L71.34 73.745L71.225 73.86L71.11 73.975L70.997 74.092L70.885 74.209L70.774 74.328L70.664 74.447L70.555 74.568L70.448 74.689L70.341 74.811L70.235 74.935L70.13 75.059L70.027 75.184L69.925 75.31L69.823 75.437L69.723 75.565L69.624 75.694L69.526 75.824L69.429 75.954L69.334 76.086L69.239 76.218L69.146 76.351L69.053 76.485L68.962 76.62L68.873 76.756L68.784 76.892L68.696 77.03L68.61 77.168L68.525 77.307L68.441 77.447L68.358 77.588L68.277 77.729L68.197 77.871L68.118 78.014L68.04 78.158L67.963 78.303L67.888 78.448L67.814 78.594L67.741 78.741L67.67 78.888L67.599 79.036L67.531 79.185L67.463 79.335L67.397 79.485L67.332 79.636L67.268 79.788L67.206 79.941L67.144 80.094L67.085 80.247L67.026 80.402L66.969 80.557L66.914 80.713L66.859 80.869L66.806 81.026L66.755 81.184L66.705 81.342L66.656 81.501L66.608 81.66L66.562 81.82L66.518 81.981L66.474 82.142L66.433 82.304L66.392 82.466L66.353 82.629L66.316 82.792L66.28 82.956L66.245 83.121L66.212 83.286L66.18 83.451L66.15 83.617L66.122 83.784L66.103 83.874L66.085 83.964L66.068 84.054L66.053 84.144L66.038 84.233L66.025 84.322L66 84.5L65.97 84.727L65.942 84.954L65.914 85.18L65.888 85.406L65.862 85.631L65.838 85.856L65.815 86.08L65.793 86.304L65.771 86.527L65.751 86.749L65.732 86.97L65.714 87.191L65.696 87.411L65.68 87.63L65.664 87.848L65.649 88.066L65.636 88.282L65.623 88.498L65.611 88.712L65.6 88.926L65.589 89.138L65.58 89.35L65.563 89.769L65.549 90.184L65.538 90.594L65.53 90.999L65.524 91.398L65.521 91.791V92.179L65.522 92.56L65.526 92.935L65.532 93.303L65.54 93.665L65.549 94.018L65.561 94.365L65.573 94.704L65.587 95.034L65.603 95.357L65.619 95.67L65.637 95.976L65.656 96.272L65.675 96.558L65.695 96.835L65.7 96.912L65.704 96.988L65.706 97.064L65.705 97.14L65.703 97.215L65.699 97.291L65.693 97.366L65.685 97.441L65.674 97.515L65.662 97.589L65.649 97.663L65.633 97.736L65.615 97.809L65.596 97.882L65.574 97.953L65.551 98.025L65.526 98.095L65.5 98.165L65.471 98.234L65.441 98.303L65.408 98.371L65.375 98.438L65.339 98.504L65.301 98.569L65.262 98.633L65.221 98.697L65.179 98.759L65.135 98.821L65.089 98.881L65.041 98.94L64.992 98.999L64.941 99.056L64.889 99.111L64.835 99.165L64.78 99.218L64.724 99.269L64.667 99.318L64.608 99.366L64.549 99.412L64.488 99.457L64.426 99.5L64.363 99.541L64.3 99.581L64.235 99.619L64.169 99.655L64.103 99.69L64.036 99.722L63.967 99.753L63.899 99.783L63.829 99.81L63.758 99.836L63.687 99.86L63.616 99.882L63.543 99.902L63.471 99.92L63.397 99.937L63.323 99.952L63.249 99.964L63.174 99.975L63.099 99.984L63.024 99.991L62.948 99.996L62.872 99.999L62.795 100H32.505L32.311 99.999L32.118 99.995L31.925 99.989L31.733 99.98L31.542 99.97L31.351 99.956L31.16 99.941L30.971 99.923L30.782 99.902L30.594 99.879L30.407 99.854L30.22 99.827L30.034 99.798L29.849 99.766L29.665 99.732L29.481 99.695L29.298 99.657L29.116 99.616L28.935 99.573L28.755 99.528L28.576 99.48L28.397 99.431L28.22 99.379L28.043 99.325L27.867 99.27L27.693 99.212L27.519 99.152L27.346 99.089L27.174 99.025L27.003 98.959L26.833 98.891L26.664 98.821L26.497 98.749L26.33 98.674L26.164 98.598L26 98.52L25.836 98.44L25.674 98.358L25.513 98.275L25.353 98.189L25.194 98.101L25.036 98.012L24.88 97.921L24.724 97.828L24.57 97.733L24.418 97.636L24.266 97.538L24.116 97.437L23.967 97.335L23.819 97.232L23.672 97.126L23.527 97.019L23.384 96.91L23.241 96.8L23.1 96.687L22.96 96.574L22.822 96.458L22.685 96.341L22.55 96.222L22.416 96.102L22.284 95.98L22.153 95.857L22.023 95.732L21.895 95.605L21.768 95.477L21.643 95.348L21.52 95.216L21.398 95.084L21.278 94.95L21.159 94.815L21.042 94.678L20.926 94.54L20.813 94.4L20.7 94.259L20.59 94.116L20.481 93.973L20.374 93.828L20.268 93.681L20.165 93.533L20.063 93.384L19.962 93.234L19.864 93.082L19.767 92.93L19.672 92.776L19.579 92.62L19.488 92.464L19.399 92.306L19.311 92.147L19.225 91.987L19.142 91.826L19.06 91.664L18.98 91.5L18.902 91.336L18.826 91.17L18.751 91.003L18.679 90.836L18.609 90.667L18.541 90.497L18.475 90.326L18.411 90.154L18.348 89.981L18.288 89.807L18.23 89.633L18.175 89.457L18.121 89.28L18.069 89.103L18.02 88.924L17.972 88.745L17.927 88.565L17.884 88.384L17.843 88.202L17.805 88.019L17.768 87.835L17.734 87.651L17.702 87.466L17.673 87.28L17.646 87.093L17.621 86.906L17.598 86.718L17.577 86.529L17.559 86.34L17.544 86.149L17.53 85.959L17.52 85.767L17.511 85.575L17.505 85.382L17.501 85.189L17.5 84.995V71.834L17.499 71.785L17.498 71.737L17.496 71.688L17.492 71.64L17.488 71.592L17.482 71.544L17.476 71.497L17.469 71.449L17.461 71.402L17.452 71.356L17.442 71.309L17.431 71.263L17.42 71.217L17.407 71.172L17.394 71.127L17.379 71.082L17.364 71.037L17.348 70.993L17.332 70.949L17.314 70.906L17.295 70.863L17.276 70.82L17.256 70.778L17.235 70.736L17.213 70.695L17.191 70.654L17.168 70.614L17.144 70.574L17.119 70.534L17.094 70.495L17.067 70.457L17.04 70.419L17.013 70.382L16.984 70.345L16.955 70.308L16.925 70.273L16.895 70.237L16.863 70.203L16.832 70.169L16.799 70.135L16.766 70.103L16.732 70.07L16.697 70.039L16.662 70.008L16.626 69.978L16.59 69.948L16.553 69.919L16.515 69.891L16.477 69.864L16.438 69.837L16.399 69.811L16.359 69.785L16.318 69.761L16.277 69.737L16.236 69.714L16.193 69.692L16.151 69.67L16.107 69.65L16.064 69.63L16.019 69.611L15.975 69.593L15.929 69.575L15.884 69.559L15.837 69.543L15.758 69.517L15.679 69.49L15.6 69.463L15.522 69.435L15.444 69.406L15.367 69.376L15.289 69.345L15.213 69.314L15.136 69.282L15.06 69.249L14.985 69.216L14.909 69.182L14.834 69.147L14.76 69.111L14.686 69.075L14.612 69.038L14.539 69L14.466 68.962L14.394 68.923L14.322 68.883L14.251 68.842L14.179 68.801L14.109 68.759L14.039 68.717L13.969 68.674L13.9 68.63L13.831 68.586L13.763 68.541L13.695 68.495L13.627 68.448L13.56 68.401L13.494 68.354L13.428 68.305L13.362 68.257L13.297 68.207L13.233 68.157L13.169 68.106L13.105 68.055L13.042 68.003L12.98 67.95L12.918 67.897L12.857 67.843L12.796 67.789L12.735 67.734L12.676 67.679L12.616 67.623L12.557 67.566L12.499 67.509L12.442 67.451L12.385 67.393L12.328 67.334L12.272 67.274L12.217 67.215L12.162 67.154L12.108 67.093L12.054 67.032L12.001 66.97L11.948 66.907L11.897 66.844L11.845 66.78L11.795 66.716L11.745 66.652L11.695 66.587L11.646 66.521L11.598 66.455L11.55 66.388L11.504 66.321L11.457 66.254L11.411 66.186L11.366 66.117L11.322 66.048L11.278 65.979L11.235 65.909L11.193 65.839L11.151 65.768L11.11 65.697L11.07 65.626L11.03 65.553L10.991 65.481L10.952 65.408L10.915 65.335L10.878 65.261L10.841 65.187L10.806 65.113L10.771 65.038L10.737 64.962L10.703 64.887L10.67 64.811L10.638 64.734L10.607 64.657L10.577 64.58L10.547 64.502L10.518 64.424L10.489 64.346L10.462 64.267L10.435 64.188L10.409 64.109L10.384 64.029L10.359 63.949L10.335 63.869L10.312 63.788L10.29 63.707L10.269 63.626L10.248 63.544L10.228 63.462L10.209 63.38L10.191 63.297L10.173 63.214L10.157 63.131L10.141 63.048L10.126 62.964L10.112 62.88L10.098 62.795L10.086 62.711L10.074 62.626L10.063 62.541L10.053 62.455L10.044 62.37L10.036 62.284L10.028 62.198L10.022 62.111L10.016 62.025L10.011 61.938L10.007 61.851L10.004 61.763L10.002 61.676L10 61.588V61.5V36H21.318ZM14.167 61.489V61.546L14.168 61.591L14.169 61.636L14.17 61.681L14.172 61.726L14.175 61.771L14.178 61.815L14.181 61.86L14.185 61.904L14.189 61.948L14.194 61.991L14.199 62.035L14.205 62.078L14.211 62.121L14.217 62.164L14.224 62.207L14.231 62.25L14.239 62.292L14.247 62.334L14.255 62.377L14.264 62.419L14.273 62.46L14.283 62.502L14.293 62.543L14.303 62.585L14.314 62.626L14.325 62.667L14.337 62.707L14.349 62.748L14.361 62.788L14.374 62.828L14.387 62.868L14.401 62.908L14.414 62.948L14.429 62.988L14.443 63.027L14.459 63.066L14.474 63.105L14.49 63.144L14.506 63.182L14.522 63.221L14.539 63.259L14.557 63.297L14.574 63.335L14.592 63.373L14.611 63.41L14.629 63.447L14.648 63.484L14.668 63.521L14.688 63.558L14.708 63.594L14.728 63.631L14.749 63.667L14.77 63.703L14.792 63.738L14.813 63.774L14.836 63.809L14.858 63.844L14.881 63.878L14.904 63.913L14.928 63.947L14.952 63.981L14.976 64.015L15 64.049L15.025 64.082L15.05 64.115L15.076 64.148L15.101 64.18L15.127 64.213L15.154 64.245L15.181 64.277L15.208 64.308L15.235 64.339L15.262 64.371L15.29 64.401L15.318 64.432L15.347 64.462L15.376 64.492L15.405 64.521L15.434 64.551L15.463 64.58L15.493 64.609L15.523 64.637L15.554 64.665L15.584 64.693L15.615 64.721L15.647 64.748L15.678 64.775L15.71 64.802L15.742 64.828L15.774 64.854L15.806 64.88L15.839 64.905L15.872 64.93L15.905 64.955L15.938 64.979L15.972 65.004L16.006 65.027L16.04 65.051L16.074 65.074L16.109 65.097L16.143 65.119L16.178 65.141L16.214 65.163L16.249 65.184L16.284 65.205L16.32 65.226L16.356 65.246L16.392 65.266L16.429 65.286L16.465 65.305L16.502 65.324L16.539 65.343L16.576 65.361L16.614 65.379L16.651 65.396L16.689 65.413L16.727 65.43L16.765 65.447L16.803 65.463L16.841 65.478L16.88 65.494L16.919 65.508L16.958 65.523L16.997 65.537L17.036 65.551L17.076 65.564L17.153 65.59L17.256 65.624L17.38 65.669L17.504 65.716L17.626 65.766L17.746 65.818L17.866 65.872L17.984 65.928L18.101 65.987L18.216 66.048L18.33 66.111L18.442 66.176L18.553 66.243L18.662 66.312L18.77 66.383L18.876 66.457L18.981 66.532L19.083 66.609L19.185 66.688L19.284 66.768L19.382 66.851L19.478 66.935L19.572 67.021L19.664 67.109L19.755 67.199L19.844 67.29L19.931 67.382L20.016 67.477L20.099 67.573L20.18 67.67L20.26 67.769L20.337 67.869L20.413 67.971L20.486 68.075L20.558 68.18L20.627 68.286L20.695 68.393L20.76 68.502L20.823 68.612L20.884 68.724L20.944 68.836L21.001 68.95L21.055 69.065L21.108 69.181L21.158 69.299L21.207 69.417L21.253 69.537L21.296 69.658L21.338 69.779L21.377 69.902L21.413 70.025L21.448 70.15L21.479 70.275L21.509 70.401L21.536 70.528L21.561 70.656L21.583 70.785L21.602 70.914L21.619 71.044L21.634 71.174L21.646 71.305L21.655 71.436L21.661 71.568L21.665 71.7L21.667 71.812V84.982L21.668 85.136L21.67 85.277L21.675 85.417L21.681 85.556L21.689 85.695L21.698 85.833L21.71 85.971L21.723 86.108L21.738 86.245L21.754 86.381L21.772 86.516L21.792 86.651L21.813 86.785L21.836 86.918L21.861 87.051L21.887 87.184L21.915 87.315L21.944 87.446L21.975 87.577L22.008 87.707L22.042 87.836L22.077 87.964L22.115 88.092L22.153 88.219L22.194 88.346L22.235 88.472L22.279 88.597L22.323 88.722L22.369 88.845L22.417 88.968L22.466 89.091L22.517 89.212L22.569 89.333L22.622 89.453L22.677 89.573L22.733 89.691L22.791 89.809L22.85 89.926L22.911 90.043L22.972 90.158L23.036 90.273L23.1 90.387L23.166 90.5L23.233 90.612L23.302 90.723L23.372 90.834L23.443 90.943L23.515 91.052L23.589 91.16L23.664 91.266L23.74 91.372L23.818 91.477L23.897 91.581L23.977 91.684L24.058 91.786L24.14 91.887L24.224 91.987L24.309 92.087L24.394 92.184L24.482 92.281L24.57 92.377L24.659 92.472L24.75 92.566L24.841 92.659L24.934 92.75L25.028 92.841L25.123 92.93L25.219 93.018L25.316 93.106L25.414 93.192L25.513 93.276L25.613 93.36L25.714 93.442L25.816 93.523L25.919 93.603L26.023 93.682L26.128 93.76L26.234 93.836L26.34 93.911L26.448 93.985L26.557 94.057L26.666 94.128L26.777 94.198L26.888 94.267L27 94.334L27.113 94.4L27.227 94.464L27.342 94.528L27.457 94.589L27.574 94.65L27.691 94.709L27.809 94.767L27.927 94.823L28.047 94.878L28.167 94.931L28.288 94.983L28.409 95.034L28.532 95.083L28.655 95.131L28.779 95.177L28.903 95.221L29.028 95.265L29.154 95.306L29.281 95.347L29.408 95.385L29.536 95.423L29.664 95.458L29.793 95.492L29.923 95.525L30.054 95.556L30.185 95.585L30.316 95.613L30.449 95.639L30.582 95.664L30.715 95.687L30.849 95.708L30.984 95.728L31.119 95.746L31.255 95.762L31.392 95.777L31.529 95.79L31.667 95.802L31.805 95.811L31.944 95.819L32.083 95.825L32.223 95.83L32.364 95.832L32.518 95.833H61.456L61.441 95.566L61.425 95.223L61.41 94.871L61.396 94.51L61.385 94.142L61.374 93.766L61.366 93.381L61.36 92.99L61.356 92.591L61.354 92.185L61.355 91.772L61.358 91.353L61.364 90.928L61.372 90.496L61.384 90.059L61.399 89.616L61.417 89.172L61.427 88.942L61.438 88.715L61.45 88.486L61.463 88.256L61.477 88.025L61.492 87.793L61.507 87.56L61.524 87.326L61.542 87.091L61.56 86.855L61.58 86.617L61.601 86.379L61.623 86.14L61.646 85.9L61.67 85.659L61.695 85.417L61.721 85.175L61.748 84.931L61.777 84.687L61.807 84.442L61.838 84.196L61.871 83.941L61.902 83.719L61.922 83.586L61.943 83.457L61.966 83.324L61.991 83.187L62.019 83.046L62.028 83.003L62.047 82.891L62.084 82.687L62.123 82.484L62.164 82.282L62.206 82.08L62.25 81.879L62.296 81.679L62.344 81.479L62.394 81.28L62.445 81.081L62.498 80.883L62.553 80.686L62.609 80.49L62.667 80.294L62.727 80.1L62.789 79.905L62.852 79.712L62.917 79.519L62.984 79.327L63.052 79.136L63.122 78.946L63.194 78.756L63.267 78.568L63.342 78.38L63.419 78.193L63.497 78.006L63.577 77.821L63.658 77.636L63.741 77.453L63.826 77.27L63.912 77.088L64 76.907L64.089 76.727L64.18 76.547L64.272 76.369L64.366 76.192L64.462 76.015L64.559 75.84L64.657 75.665L64.757 75.492L64.859 75.319L64.962 75.148L65.066 74.977L65.172 74.807L65.279 74.639L65.388 74.471L65.498 74.305L65.61 74.139L65.723 73.975L65.838 73.811L65.954 73.649L66.071 73.488L66.19 73.327L66.31 73.168L66.432 73.01L66.554 72.853L66.679 72.698L66.804 72.543L66.931 72.389L67.06 72.237L67.189 72.086L67.32 71.936L67.452 71.787L67.586 71.639L67.721 71.492L67.857 71.347L67.994 71.203L68.133 71.06L68.273 70.918L68.414 70.778L68.557 70.639L68.701 70.501L68.846 70.364L68.992 70.228L69.139 70.094L69.288 69.961L69.438 69.83L69.589 69.699L69.741 69.57L69.895 69.442L70.049 69.316L70.205 69.191L70.362 69.067L70.52 68.945L70.679 68.824L70.839 68.704L71.001 68.586L71.163 68.469L71.327 68.354L71.492 68.24L71.658 68.127L71.825 68.016L71.993 67.906L72.162 67.798L72.332 67.691L72.503 67.585L72.675 67.481L72.849 67.379L73.023 67.278L73.198 67.178L73.375 67.08L73.552 66.984L73.73 66.889L73.909 66.796L74.09 66.704L74.271 66.613L74.453 66.525L74.636 66.438L74.82 66.352L75.005 66.268L75.191 66.186L75.378 66.105L75.566 66.026L75.754 65.948L75.944 65.872L76.134 65.798L76.326 65.726L76.518 65.655L76.71 65.585L76.904 65.518L77.099 65.452L77.294 65.388L77.49 65.325L77.687 65.265L77.885 65.206L78.084 65.148L78.283 65.093L78.466 65.044L78.603 65.007L78.726 64.973L78.848 64.939L78.969 64.904L79.09 64.869L79.21 64.833L79.33 64.796L79.449 64.759L79.568 64.721L79.686 64.682L79.803 64.643L79.92 64.603L80.037 64.563L80.152 64.522L80.268 64.481L80.383 64.438L80.497 64.396L80.61 64.352L80.723 64.309L80.836 64.264L80.948 64.219L81.06 64.173L81.17 64.127L81.281 64.08L81.391 64.033L81.5 63.985L81.609 63.936L81.718 63.887L81.826 63.837L81.933 63.787L82.04 63.736L82.146 63.685L82.252 63.633L82.358 63.58L82.463 63.527L82.567 63.473L82.671 63.419L82.774 63.364L82.877 63.309L82.98 63.253L83.082 63.196L83.184 63.139L83.285 63.082L83.385 63.024L83.486 62.965L83.585 62.905L83.684 62.846L83.783 62.785L83.882 62.724L83.98 62.663L84.077 62.6L84.174 62.538L84.271 62.474L84.367 62.411L84.463 62.346L84.558 62.281L84.653 62.216L84.747 62.15L84.841 62.083L84.935 62.016L85.028 61.949L85.121 61.88L85.213 61.812L85.305 61.742L85.396 61.672L85.487 61.602L85.578 61.531L85.668 61.459L85.758 61.387L85.848 61.314L85.937 61.241L86.025 61.167L86.113 61.093L86.201 61.018L86.289 60.943L86.376 60.867L86.462 60.79L86.548 60.713L86.634 60.635L86.72 60.557L86.805 60.478L86.889 60.399L86.974 60.319L87.058 60.239L87.141 60.158L87.224 60.076L87.307 59.994L87.389 59.911L87.471 59.828L87.553 59.745L87.634 59.66L87.714 59.575L87.795 59.49L87.875 59.404L87.955 59.317L88.034 59.23L88.113 59.143L88.191 59.055L88.269 58.966L88.347 58.877L88.424 58.787L88.501 58.696L88.578 58.605L88.654 58.514L88.73 58.422L88.806 58.329L88.881 58.236L88.955 58.142L89.03 58.048L89.1 57.958L89.25 57.762L89.396 57.569L89.54 57.373L89.682 57.175L89.823 56.975L89.962 56.773L90.1 56.569L90.236 56.362L90.371 56.154L90.504 55.943L90.635 55.73L90.766 55.515L90.894 55.298L91.021 55.079L91.147 54.858L91.271 54.634L91.393 54.409L91.514 54.181L91.634 53.952L91.752 53.72L91.868 53.486L91.983 53.251L92.096 53.013L92.207 52.773L92.317 52.532L92.426 52.288L92.533 52.042L92.638 51.795L92.742 51.545L92.844 51.294L92.944 51.041L93.043 50.785L93.141 50.528L93.236 50.269L93.33 50.009L93.423 49.746L93.514 49.482L93.603 49.216L93.691 48.948L93.777 48.678L93.861 48.407L93.944 48.134L94.025 47.859L94.105 47.582L94.182 47.304L94.259 47.024L94.333 46.743L94.406 46.459L94.478 46.175L94.547 45.888L94.615 45.6L94.682 45.311L94.746 45.02L94.809 44.728L94.871 44.434L94.931 44.138L94.989 43.841L95.045 43.543L95.1 43.243L95.153 42.942L95.205 42.639L95.255 42.335L95.303 42.03L95.349 41.724L95.394 41.416L95.437 41.106L95.479 40.796L95.519 40.484L95.555 40.187L93.21 40.185L88.5 40.181L82.873 40.178L76.512 40.176L62.326 40.172L47.417 40.169L21.318 40.167H14.167V61.489Z" fill="#174E83"/>
<path d="M96 45H60" stroke="#174E83" stroke-width="6.09" stroke-miterlimit="1.5" stroke-linecap="round" stroke-linejoin="round"/>
<path d="M18.375 68.0002H29.6248C33.5415 68.0002 39.6246 71.0003 39.6246 79.0004" stroke="#174E83" stroke-width="3.64" stroke-miterlimit="1.5" stroke-linecap="round" stroke-linejoin="round"/>
<path fill-rule="evenodd" clip-rule="evenodd" d="M88.811 50C89.116 50 89.396 50.166 89.543 50.433C89.455 51.131 88.968 52.687 86.447 56C82.642 61.002 73.566 62.997 73.551 63C69.725 64.057 66.576 66.731 64.538 68.892C62.701 70.864 60.127 71.984 57.432 71.984C54.983 72 51.975 72 49.531 72C47.039 72 44.738 70.664 43.501 68.5C43.5 68.5 43.5 68.5 43.5 68.5C41.557 65.099 37.94 63 34.024 63C28.471 63 21.968 63 21.968 63C17.944 63 18 60 18 60V55.78C18 54.247 18.609 52.777 19.693 51.693C20.777 50.609 22.247 50 23.78 50C39.658 50 83.144 50 88.811 50Z" fill="#BED8E9"/>
<path fill-rule="evenodd" clip-rule="evenodd" d="M24.5001 73V84.5C24.5001 84.5 24.2341 86.805 26.0001 89C27.7661 91.195 30.5001 91 30.5001 91H36.0001V81.17C36.0001 78.249 34.5981 75.505 32.2311 73.794C30.4171 72.519 27.8981 71.801 24.5001 73Z" fill="#BED8E9"/>
</svg>
